<?xml version="1.0" encoding="utf-8"?>
<!-- Generator: Adobe Illustrator 15.1.0, SVG Export Plug-In . SVG Version: 6.00 Build 0)  -->
<!DOCTYPE svg PUBLIC "-//W3C//DTD SVG 1.1//EN" "http://www.w3.org/Graphics/SVG/1.1/DTD/svg11.dtd">
<svg version="1.1" id="Слой_1" xmlns="http://www.w3.org/2000/svg" xmlns:xlink="http://www.w3.org/1999/xlink" x="0px" y="0px"
	 width="200px" height="65px" viewBox="0 0 200 65" enable-background="new 0 0 200 65" xml:space="preserve">
<g>
	<g>
		<path fill-rule="evenodd" clip-rule="evenodd" fill="#7CCFE2" d="M25.55,43.455c0,1.59-0.82,2.38-2.45,2.38h-8.21
			c-4.91,0-7.36-2.47-7.36-7.41v-6.23c0-4.87,2.45-7.31,7.36-7.31h8.08c1.71-0.01,2.57,0.79,2.57,2.4c-0.01,1.57-0.85,2.37-2.51,2.4
			h-8.21c-1.59-0.01-2.38,0.84-2.38,2.53v6.32c0,1.65,0.83,2.47,2.5,2.47l8.2,0.01C24.75,41.015,25.55,41.835,25.55,43.455z"/>
		<path fill-rule="evenodd" clip-rule="evenodd" fill="#7CCFE2" d="M35.28,29.715c-1.61,0-2.41,0.81-2.41,2.41v6.36
			c0,1.66,0.8,2.48,2.41,2.48h3.31c1.65,0,2.48-0.82,2.48-2.48v-6.43c0-1.56-0.83-2.34-2.48-2.34H35.28z M35.33,24.845h3.26
			c4.93,0,7.39,2.43,7.39,7.28v6.26c0,4.95-2.45,7.42-7.36,7.42h-3.35c-4.88,0-7.31-2.41-7.31-7.25v-6.42
			C27.96,27.275,30.41,24.845,35.33,24.845z"/>
		<path fill-rule="evenodd" clip-rule="evenodd" fill="#7CCFE2" d="M66.41,27.285v16.13c0,1.6-0.82,2.39-2.46,2.39l-8.21-0.02
			c-4.9,0-7.35-2.47-7.35-7.41v-11.12c0-1.61,0.81-2.42,2.45-2.42c1.63,0,2.46,0.82,2.46,2.45v11.18c0,1.66,0.83,2.49,2.5,2.49h5.7
			v-13.67c0-1.63,0.83-2.45,2.5-2.45C65.6,24.835,66.41,25.655,66.41,27.285z"/>
		<path fill-rule="evenodd" clip-rule="evenodd" fill="#7CCFE2" d="M68.82,43.355v-16.07c0-1.59,0.81-2.39,2.45-2.39l8.21-0.01
			c4.9,0,7.36,2.47,7.36,7.41v11.12c0,1.62-0.82,2.42-2.46,2.42c-1.63,0-2.45-0.81-2.45-2.45v-11.19c0-1.65-0.83-2.48-2.49-2.48
			h-5.72v13.64c0,1.63-0.83,2.45-2.48,2.45C69.62,45.805,68.82,44.985,68.82,43.355z"/>
		<path fill-rule="evenodd" clip-rule="evenodd" fill="#7CCFE2" d="M100.74,43.455c0,1.59-0.82,2.38-2.45,2.38H96.6
			c-4.91,0-7.36-2.47-7.36-7.41v-15.96c0-1.61,0.82-2.42,2.46-2.42c1.64-0.01,2.46,0.8,2.45,2.42v2.4l3.99,0.02
			c1.71-0.01,2.57,0.79,2.57,2.4c0,1.57-0.83,2.37-2.49,2.4l-4.07-0.01v8.86c0,1.65,0.84,2.47,2.5,2.47l1.67,0.01
			C99.93,41.015,100.74,41.835,100.74,43.455z"/>
		<path fill-rule="evenodd" clip-rule="evenodd" fill="#7CCFE2" d="M121.33,43.455c0,1.59-0.82,2.38-2.45,2.38h-8.21
			c-4.91,0-7.36-2.47-7.36-7.41v-11.13c0-1.61,0.82-2.41,2.45-2.41h12.99c1.71-0.01,2.57,0.79,2.57,2.4
			c-0.01,1.57-0.85,2.37-2.5,2.4l-10.6-0.01v3.22l7.34-0.03c1.65,0.02,2.49,0.85,2.49,2.49c0.01,1.57-0.81,2.36-2.44,2.36
			l-7.39,0.01v0.81c0,1.65,0.83,2.47,2.5,2.47l8.21,0.01C120.53,41.015,121.33,41.835,121.33,43.455z"/>
		<path fill-rule="evenodd" clip-rule="evenodd" fill="#7CCFE2" d="M137.69,33.745c-1.67,0-2.5-0.82-2.5-2.45v-1.58h-4.04
			c-1.67,0-2.5,0.83-2.5,2.48v11.19c0,1.64-0.82,2.45-2.46,2.45c-1.63,0-2.45-0.8-2.45-2.42v-11.12c0-4.94,2.45-7.41,7.36-7.41
			l6.54,0.01c1.63,0,2.45,0.8,2.45,2.39v4.01C140.09,32.925,139.29,33.745,137.69,33.745z"/>
	</g>
	<g>
		<path fill-rule="evenodd" clip-rule="evenodd" fill="#7CCFE2" d="M135.73,39.805c-0.53,0.29-0.95,0.69-1.24,1.22
			c-0.3,0.54-0.45,1.09-0.45,1.67c0,0.55,0.15,1.1,0.45,1.63c0.29,0.52,0.71,0.94,1.23,1.22c0.53,0.29,1.08,0.44,1.66,0.44
			c0.56,0,1.11-0.15,1.64-0.44c0.53-0.28,0.94-0.7,1.23-1.22c0.29-0.53,0.44-1.08,0.44-1.63c0-0.58-0.15-1.13-0.44-1.67
			c-0.3-0.53-0.72-0.93-1.25-1.22c-0.53-0.28-1.07-0.43-1.62-0.43C136.81,39.375,136.26,39.525,135.73,39.805z"/>
		<path fill-rule="evenodd" clip-rule="evenodd" fill="#7CCFE2" d="M158.42,34.325v-4.95h-5.78c-1.72,0-2.57,0.86-2.57,2.56v2.39
			H158.42z M160.99,46.045c-1.71,0-2.57-0.84-2.57-2.53v-4.15l-8.34-0.02l-0.01,4.17c0,1.69-0.84,2.53-2.52,2.53
			s-2.52-0.83-2.52-2.5v-11.5c0-5.12,2.51-7.67,7.55-7.67l8.36,0.01c1.68,0,2.52,0.83,2.52,2.47v16.66
			C163.46,45.205,162.64,46.045,160.99,46.045z"/>
		<path fill-rule="evenodd" clip-rule="evenodd" fill="#7CCFE2" d="M186.97,24.375c5.04,0,7.56,2.55,7.56,7.67v11.5
			c0,1.67-0.84,2.5-2.52,2.5s-2.52-0.84-2.52-2.53v-11.58c0-1.7-0.86-2.56-2.56-2.56h-4.18l0.03,14.17c0,1.67-0.84,2.5-2.52,2.5
			c-1.67,0-2.51-0.84-2.51-2.53v-11.58c0-1.7-0.86-2.56-2.55-2.56h-4.17v14.1c0,1.7-0.85,2.54-2.55,2.54
			c-1.66,0-2.48-0.84-2.48-2.54v-16.62c0-1.64,0.85-2.48,2.56-2.52L186.97,24.375z"/>
	</g>
</g>
</svg>
