<?xml version="1.0" encoding="utf-8"?>
<!-- Generator: Adobe Illustrator 16.0.0, SVG Export Plug-In . SVG Version: 6.00 Build 0)  -->
<!DOCTYPE svg PUBLIC "-//W3C//DTD SVG 1.1//EN" "http://www.w3.org/Graphics/SVG/1.1/DTD/svg11.dtd">
<svg version="1.1" id="Layer_1" xmlns="http://www.w3.org/2000/svg" xmlns:xlink="http://www.w3.org/1999/xlink" x="0px" y="0px"
	 width="200px" height="65px" viewBox="0 0 200 65" enable-background="new 0 0 200 65" xml:space="preserve">
<g>
	<g>
		<path fill="#1288CA" d="M109.952,60.272c-0.572,0.718-1.447,1.076-2.626,1.076c-0.632,0-1.18-0.229-1.644-0.688
			c-0.464-0.46-0.696-1.03-0.696-1.713c0-0.816,0.358-1.508,1.072-2.071c0.715-0.564,1.626-0.847,2.734-0.847
			c0.301,0,0.643,0.065,1.023,0.196c0-1.305-0.582-1.956-1.746-1.956c-0.892,0-1.579,0.24-2.061,0.722l-0.602-1.196
			c0.271-0.22,0.646-0.409,1.125-0.567c0.479-0.158,0.936-0.237,1.373-0.237c1.168,0,2.017,0.266,2.546,0.797
			c0.528,0.532,0.793,1.377,0.793,2.535v2.889c0,0.708,0.211,1.179,0.633,1.414v0.715c-0.582,0-1.018-0.083-1.306-0.248
			C110.283,60.927,110.077,60.654,109.952,60.272z M109.816,57.241c-0.451-0.101-0.769-0.15-0.948-0.15
			c-0.722,0-1.312,0.186-1.768,0.557c-0.457,0.371-0.684,0.811-0.684,1.316c0,0.838,0.492,1.257,1.48,1.257
			c0.723,0,1.361-0.345,1.919-1.031V57.241z"/>
		<path fill="#1288CA" d="M114.925,60.755v3.603h-1.431V53.142h1.431v0.662c0.54-0.542,1.195-0.813,1.962-0.813
			c1.145,0,2.034,0.355,2.67,1.068c0.638,0.712,0.956,1.755,0.956,3.129c0,1.224-0.321,2.223-0.963,2.998
			c-0.643,0.774-1.569,1.162-2.783,1.162c-0.341,0-0.705-0.06-1.095-0.181C115.283,61.048,115.034,60.909,114.925,60.755z
			 M114.925,54.879v4.694c0.09,0.136,0.28,0.265,0.57,0.388c0.292,0.123,0.574,0.184,0.85,0.184c1.776,0,2.664-1.003,2.664-3.009
			c0-1.018-0.211-1.763-0.633-2.233c-0.421-0.472-1.096-0.707-2.023-0.707c-0.199,0-0.446,0.069-0.736,0.21
			C115.324,54.546,115.094,54.704,114.925,54.879z"/>
		<path fill="#1288CA" d="M126.628,60.272c-0.571,0.718-1.446,1.076-2.625,1.076c-0.632,0-1.18-0.229-1.643-0.688
			c-0.464-0.46-0.696-1.03-0.696-1.713c0-0.816,0.356-1.508,1.071-2.071c0.715-0.564,1.627-0.847,2.734-0.847
			c0.301,0,0.642,0.065,1.023,0.196c0-1.305-0.582-1.956-1.745-1.956c-0.894,0-1.58,0.24-2.061,0.722l-0.603-1.196
			c0.271-0.22,0.646-0.409,1.124-0.567c0.479-0.158,0.938-0.237,1.373-0.237c1.169,0,2.018,0.266,2.547,0.797
			c0.529,0.532,0.793,1.377,0.793,2.535v2.889c0,0.708,0.211,1.179,0.632,1.414v0.715c-0.582,0-1.017-0.083-1.305-0.248
			C126.961,60.927,126.754,60.654,126.628,60.272z M126.493,57.241c-0.452-0.101-0.768-0.15-0.948-0.15
			c-0.722,0-1.312,0.186-1.768,0.557c-0.457,0.371-0.685,0.811-0.685,1.316c0,0.838,0.494,1.257,1.481,1.257
			c0.723,0,1.362-0.345,1.919-1.031V57.241z"/>
		<path fill="#1288CA" d="M134.549,54.519c-0.311-0.216-0.624-0.323-0.939-0.323c-0.508,0-0.95,0.233-1.328,0.699
			c-0.379,0.466-0.568,1.028-0.568,1.685v4.619h-1.429v-8.057h1.429v1.287c0.522-0.959,1.296-1.438,2.324-1.438
			c0.257,0,0.624,0.045,1.106,0.136L134.549,54.519z"/>
		<path fill="#1288CA" d="M136.67,54.271h-0.933v-1.129h0.933v-1.685l1.43-0.55v2.234h2.211v1.129H138.1v4.001
			c0,0.677,0.113,1.159,0.343,1.444c0.228,0.286,0.595,0.429,1.102,0.429c0.366,0,0.744-0.093,1.136-0.277l0.21,1.256
			c-0.591,0.149-1.24,0.226-1.947,0.226c-0.637,0-1.175-0.237-1.613-0.711c-0.439-0.474-0.659-1.072-0.659-1.794V54.271z"/>
		<path fill="#1288CA" d="M151.595,61.198v-5.101c0-1.268-0.55-1.902-1.647-1.902c-0.346,0-0.67,0.105-0.971,0.319
			c-0.301,0.213-0.507,0.455-0.617,0.726v5.958h-1.429v-5.725c0-0.396-0.149-0.709-0.447-0.937
			c-0.299-0.228-0.694-0.342-1.185-0.342c-0.286,0-0.591,0.109-0.914,0.331c-0.323,0.22-0.554,0.464-0.688,0.729v5.943h-1.43v-8.057
			h0.934l0.474,0.933c0.552-0.723,1.241-1.083,2.068-1.083c1.153,0,1.961,0.358,2.422,1.075c0.16-0.305,0.46-0.561,0.896-0.767
			c0.437-0.206,0.885-0.309,1.346-0.309c0.833,0,1.478,0.247,1.934,0.741s0.685,1.188,0.685,2.08v5.386H151.595z"/>
		<path fill="#1288CA" d="M161.84,57.309h-5.808c0,0.943,0.259,1.668,0.774,2.175c0.457,0.44,1.044,0.661,1.762,0.661
			c0.816,0,1.499-0.237,2.046-0.714l0.601,1.03c-0.221,0.221-0.559,0.412-1.016,0.572c-0.571,0.21-1.208,0.315-1.909,0.315
			c-1.014,0-1.874-0.343-2.58-1.031c-0.788-0.757-1.183-1.774-1.183-3.053c0-1.33,0.404-2.396,1.211-3.198
			c0.723-0.717,1.578-1.075,2.565-1.075c1.149,0,2.049,0.324,2.701,0.971c0.632,0.622,0.947,1.447,0.947,2.474
			C161.952,56.752,161.915,57.043,161.84,57.309z M158.372,54.195c-0.638,0-1.172,0.205-1.603,0.616
			c-0.411,0.392-0.644,0.878-0.699,1.46h4.46c0-0.577-0.18-1.059-0.541-1.444C159.594,54.405,159.054,54.195,158.372,54.195z"/>
		<path fill="#1288CA" d="M168.414,61.198v-4.687c0-0.858-0.129-1.458-0.387-1.802c-0.259-0.343-0.692-0.515-1.299-0.515
			c-0.325,0-0.667,0.098-1.022,0.293s-0.629,0.437-0.82,0.722v5.988h-1.429v-8.057h0.978l0.451,1.039
			c0.472-0.793,1.241-1.189,2.31-1.189c1.765,0,2.647,1.073,2.647,3.22v4.987H168.414z"/>
		<path fill="#1288CA" d="M172.386,54.271h-0.933v-1.129h0.933v-1.685l1.43-0.55v2.234h2.211v1.129h-2.211v4.001
			c0,0.677,0.113,1.159,0.342,1.444c0.229,0.286,0.595,0.429,1.102,0.429c0.366,0,0.744-0.093,1.137-0.277l0.21,1.256
			c-0.592,0.149-1.241,0.226-1.948,0.226c-0.637,0-1.175-0.237-1.613-0.711s-0.658-1.072-0.658-1.794V54.271z"/>
		<path fill="#1288CA" d="M177.455,60.716l0.505-1.353c0.797,0.521,1.438,0.781,1.925,0.781c0.883,0,1.324-0.37,1.324-1.113
			c0-0.531-0.426-0.988-1.279-1.368c-0.656-0.301-1.099-0.53-1.326-0.686c-0.229-0.154-0.427-0.332-0.595-0.529
			c-0.169-0.198-0.293-0.409-0.377-0.633c-0.082-0.223-0.123-0.462-0.123-0.718c0-0.662,0.24-1.178,0.722-1.55
			c0.481-0.371,1.111-0.557,1.888-0.557c0.587,0,1.326,0.186,2.219,0.557l-0.406,1.324c-0.565-0.451-1.135-0.677-1.707-0.677
			c-0.341,0-0.628,0.079-0.861,0.24c-0.232,0.161-0.35,0.364-0.35,0.609c0,0.517,0.293,0.907,0.88,1.174l1.023,0.466
			c0.626,0.286,1.082,0.611,1.369,0.979c0.286,0.365,0.429,0.824,0.429,1.376c0,0.722-0.253,1.287-0.761,1.696
			c-0.506,0.409-1.208,0.613-2.105,0.613C179,61.349,178.203,61.138,177.455,60.716z"/>
	</g>
	<g>
		<path fill="#1288CA" d="M16.882,56.493l4.952-6.112c2.737,2.508,5.788,3.761,9.152,3.761c2.256,0,4.116-0.334,5.579-1.002
			c1.462-0.67,2.194-1.588,2.194-2.759c0-1.985-1.62-2.978-4.858-2.978c-0.878,0-2.184,0.105-3.918,0.314
			c-1.735,0.208-3.04,0.313-3.918,0.313c-5.391,0-8.086-1.933-8.086-5.798c0-1.107,0.449-2.194,1.348-3.26
			c0.898-1.065,1.943-1.85,3.134-2.351c-3.824-2.486-5.735-6.007-5.735-10.563c0-3.594,1.316-6.566,3.949-8.917
			s5.871-3.526,9.716-3.526c3.008,0,5.526,0.563,7.553,1.692l3.072-3.573l5.422,4.92l-3.73,2.727
			c1.295,1.964,1.943,4.284,1.943,6.958c0,3.824-1.165,6.879-3.495,9.167s-5.271,3.432-8.822,3.432
			c-0.565,0-1.317-0.051-2.257-0.156l-1.285-0.188c-0.147,0-0.706,0.225-1.677,0.675c-0.972,0.449-1.458,0.914-1.458,1.395
			c0,0.836,0.721,1.254,2.163,1.254c0.647,0,1.734-0.157,3.26-0.471c1.525-0.313,2.831-0.47,3.917-0.47
			c7.626,0,11.44,3.062,11.44,9.183c0,3.386-1.526,6.044-4.576,7.978c-3.051,1.932-6.729,2.898-11.033,2.898
			C25.69,61.037,21.041,59.522,16.882,56.493z M24.718,26.09c0,1.986,0.549,3.579,1.646,4.78c1.097,1.202,2.575,1.802,4.435,1.802
			c1.859,0,3.291-0.585,4.293-1.755c1.003-1.17,1.505-2.779,1.505-4.827c0-1.692-0.538-3.123-1.614-4.293
			c-1.077-1.17-2.471-1.755-4.184-1.755c-1.797,0-3.26,0.564-4.388,1.692C25.282,22.862,24.718,24.315,24.718,26.09z"/>
		<path fill="#1288CA" d="M53.71,47.874V20.731h-4.294v-6.425H61.64v33.568H53.71z M57.753,1.299c1.253,0,2.324,0.444,3.212,1.332
			c0.888,0.889,1.332,1.959,1.332,3.212c0,1.254-0.444,2.325-1.332,3.212c-0.889,0.889-1.959,1.333-3.212,1.333
			c-1.254,0-2.325-0.444-3.212-1.333c-0.889-0.887-1.333-1.958-1.333-3.212c0-1.253,0.444-2.324,1.333-3.212
			C55.428,1.743,56.499,1.299,57.753,1.299z"/>
		<path fill="#1288CA" d="M92.354,47.874V28.473c0-2.862-0.548-4.952-1.646-6.269c-1.097-1.316-2.889-1.974-5.375-1.974
			c-1.149,0-2.377,0.324-3.682,0.971c-1.307,0.648-2.325,1.453-3.056,2.414v24.259H70.76V14.306h5.642l1.442,3.134
			c2.131-2.507,5.276-3.761,9.434-3.761c3.991,0,7.141,1.197,9.45,3.589c2.309,2.393,3.463,5.731,3.463,10.014v20.592H92.354z"/>
		<path fill="#1288CA" d="M106.459,31.011c0-5.119,1.478-9.288,4.436-12.505c2.956-3.217,6.858-4.827,11.706-4.827
			c5.098,0,9.058,1.546,11.878,4.638c2.822,3.093,4.231,7.324,4.231,12.694c0,5.349-1.437,9.601-4.309,12.757
			c-2.874,3.154-6.808,4.732-11.801,4.732c-5.099,0-9.063-1.594-11.895-4.78C107.874,40.535,106.459,36.298,106.459,31.011z
			 M114.607,31.011c0,7.397,2.665,11.095,7.993,11.095c2.444,0,4.383-0.961,5.813-2.883c1.432-1.922,2.147-4.659,2.147-8.212
			c0-7.292-2.653-10.938-7.961-10.938c-2.444,0-4.389,0.961-5.83,2.884C115.329,24.879,114.607,27.564,114.607,31.011z"/>
		<path fill="#1288CA" d="M142.91,45.711l2.789-6.237c2.341,1.859,4.984,2.789,7.93,2.789c3.051,0,4.576-1.086,4.576-3.259
			c0-1.274-0.46-2.32-1.379-3.135c-0.92-0.814-2.706-1.775-5.359-2.883c-5.788-2.402-8.682-5.767-8.682-10.092
			c0-2.904,1.106-5.167,3.322-6.786c2.215-1.619,5.047-2.429,8.493-2.429c3.489,0,6.771,0.783,9.842,2.351l-2.257,6.081
			c-1.713-1.462-4.096-2.194-7.146-2.194c-2.737,0-4.105,1.086-4.105,3.259c0,0.857,0.449,1.63,1.348,2.32
			c0.898,0.689,2.821,1.614,5.768,2.773s5.066,2.565,6.362,4.215c1.295,1.651,1.943,3.646,1.943,5.987
			c0,3.113-1.155,5.563-3.463,7.349c-2.31,1.786-5.449,2.681-9.419,2.681c-2.236,0-4.027-0.184-5.375-0.549
			C146.749,47.586,145.021,46.839,142.91,45.711z"/>
		<path fill="#1288CA" d="M174.724,47.874V20.731h-4.295v-6.425h12.224v33.568H174.724z M178.767,1.299
			c1.253,0,2.323,0.444,3.212,1.332c0.888,0.889,1.332,1.959,1.332,3.212c0,1.254-0.444,2.325-1.332,3.212
			c-0.889,0.889-1.959,1.333-3.212,1.333c-1.255,0-2.325-0.444-3.213-1.333c-0.889-0.887-1.332-1.958-1.332-3.212
			c0-1.253,0.443-2.324,1.332-3.212C176.441,1.743,177.512,1.299,178.767,1.299z"/>
	</g>
</g>
</svg>
