<?xml version="1.0" encoding="utf-8"?>
<!-- Generator: Adobe Illustrator 16.0.0, SVG Export Plug-In . SVG Version: 6.00 Build 0)  -->
<!DOCTYPE svg PUBLIC "-//W3C//DTD SVG 1.1//EN" "http://www.w3.org/Graphics/SVG/1.1/DTD/svg11.dtd">
<svg version="1.1" xmlns="http://www.w3.org/2000/svg" xmlns:xlink="http://www.w3.org/1999/xlink" x="0px" y="0px" width="200px"
	 height="65px" viewBox="0 0 200 65" enable-background="new 0 0 200 65" xml:space="preserve">
<g id="cdr_x5F_object">
	
		<rect fill-rule="evenodd" clip-rule="evenodd" stroke="#231F20" stroke-width="0" stroke-miterlimit="10" width="200" height="65"/>
	<path fill-rule="evenodd" clip-rule="evenodd" fill="#00FF00" stroke="#231F20" stroke-width="0" stroke-miterlimit="10" d="
		M35.894,27.8l5.436-5.928c0.104-0.109,0.221-0.181,0.336-0.225c0.121-0.046,0.27-0.065,0.453-0.065h6.191
		c0.056,0,0.093,0.012,0.121,0.034c0.028,0.02,0.044,0.054,0.044,0.092c0,0.021-0.005,0.05-0.016,0.079
		c-0.012,0.021-0.028,0.043-0.05,0.055l-8.051,8.143l-0.048,0.051c-0.475,0.519-0.713,0.966-0.713,1.341
		c0,0.248,0.061,0.479,0.171,0.695c0.116,0.215,0.309,0.468,0.59,0.755l8.244,8.553c0.022,0.012,0.039,0.033,0.05,0.056
		c0.011,0.027,0.016,0.057,0.016,0.077c0,0.027-0.016,0.061-0.05,0.086c-0.033,0.03-0.072,0.041-0.111,0.041h-6.919
		c-0.176,0-0.331-0.028-0.468-0.084c-0.144-0.048-0.25-0.126-0.326-0.226l-4.867-6.316c-0.182-0.237-0.398-0.419-0.645-0.542
		c-0.249-0.128-0.52-0.188-0.807-0.188c-0.292,0-0.563,0.067-0.811,0.194c-0.249,0.134-0.496,0.344-0.745,0.634l-5.364,6.219
		c-0.088,0.111-0.193,0.188-0.325,0.237c-0.127,0.051-0.287,0.072-0.469,0.072h-6.258c-0.048,0-0.093-0.011-0.126-0.041
		c-0.033-0.025-0.05-0.059-0.05-0.086c0-0.021,0.006-0.045,0.018-0.066c0.01-0.02,0.027-0.043,0.049-0.066l8.117-8.354
		c0.32-0.348,0.531-0.612,0.618-0.801c0.094-0.187,0.139-0.396,0.139-0.623c0-0.226-0.056-0.454-0.172-0.673
		c-0.111-0.221-0.309-0.481-0.585-0.785l-8.034-8.302c-0.033-0.023-0.054-0.04-0.061-0.055c-0.006-0.018-0.011-0.045-0.022-0.079
		c0.012-0.05,0.029-0.088,0.055-0.106c0.028-0.014,0.066-0.02,0.123-0.02h6.644c0.181,0,0.335,0.02,0.452,0.07
		c0.121,0.05,0.22,0.122,0.309,0.22l4.834,5.961c0.238,0.28,0.474,0.49,0.711,0.624c0.237,0.139,0.49,0.203,0.756,0.203
		c0.281,0,0.552-0.064,0.8-0.193C35.331,28.335,35.606,28.113,35.894,27.8z M35.265,27.398c-0.139,0.158-0.288,0.285-0.442,0.375
		c-0.16,0.081-0.308,0.126-0.446,0.126c-0.183,0-0.348-0.038-0.485-0.115c-0.139-0.073-0.282-0.193-0.42-0.354l-4.769-5.881
		c-0.187-0.237-0.402-0.413-0.656-0.524c-0.253-0.116-0.552-0.173-0.899-0.173h-6.671c-0.314,0-0.552,0.067-0.707,0.206
		c-0.153,0.133-0.23,0.33-0.23,0.59c0,0.194,0.109,0.409,0.334,0.646c0.045,0.055,0.073,0.081,0.083,0.093l8.05,8.328
		c0.171,0.16,0.292,0.308,0.365,0.441c0.065,0.138,0.104,0.276,0.104,0.413c0,0.149-0.032,0.285-0.099,0.412
		c-0.066,0.123-0.199,0.29-0.403,0.492l-8.101,8.343c-0.17,0.172-0.286,0.314-0.347,0.425c-0.061,0.116-0.088,0.237-0.088,0.364
		c0,0.248,0.077,0.436,0.226,0.569c0.148,0.125,0.369,0.193,0.662,0.193h6.339c0.354,0,0.652-0.051,0.889-0.156
		c0.238-0.1,0.468-0.281,0.695-0.54l5.154-5.992c0.204-0.221,0.392-0.37,0.558-0.464c0.17-0.093,0.347-0.137,0.54-0.137
		c0.188,0,0.354,0.035,0.502,0.12c0.155,0.083,0.282,0.2,0.392,0.347l4.701,6.093c0.204,0.248,0.43,0.432,0.673,0.552
		c0.243,0.115,0.525,0.178,0.844,0.178h6.986c0.303,0,0.535-0.068,0.696-0.205c0.16-0.133,0.242-0.333,0.242-0.591
		c0-0.138-0.028-0.26-0.082-0.364c-0.051-0.098-0.16-0.231-0.321-0.392l-8.276-8.551c-0.155-0.15-0.265-0.293-0.332-0.421
		c-0.071-0.133-0.105-0.266-0.105-0.403c0-0.153,0.039-0.298,0.111-0.436c0.077-0.143,0.193-0.291,0.359-0.452l8.017-8.183
		c0.183-0.192,0.298-0.337,0.348-0.436c0.05-0.094,0.071-0.206,0.071-0.319c0-0.251-0.076-0.438-0.226-0.571
		c-0.149-0.126-0.37-0.193-0.663-0.193h-6.224c-0.359,0-0.646,0.051-0.872,0.144c-0.226,0.1-0.464,0.282-0.711,0.554L35.265,27.398z
		 M34.829,36.066c-0.045-0.056-0.099-0.105-0.171-0.154c-0.067-0.05-0.133-0.071-0.183-0.071c-0.066,0-0.138,0.021-0.22,0.071
		c-0.084,0.049-0.155,0.114-0.221,0.203l-5.187,6.026c-0.292,0.335-0.591,0.579-0.904,0.728c-0.316,0.148-0.674,0.227-1.082,0.227
		h-6.384c-0.607,0-1.066-0.127-1.369-0.389c-0.308-0.257-0.463-0.637-0.463-1.13c0-0.23,0.033-0.419,0.105-0.579
		c0.072-0.154,0.204-0.33,0.397-0.523l8.343-8.563c0.011-0.012,0.027-0.028,0.05-0.051c0.093-0.099,0.144-0.181,0.144-0.259
		c0-0.066-0.044-0.154-0.127-0.275c-0.011-0.023-0.022-0.038-0.033-0.051l-8.276-8.547c-0.182-0.192-0.32-0.391-0.408-0.59
		c-0.084-0.198-0.127-0.409-0.127-0.622c0-0.432,0.16-0.774,0.474-1.021c0.321-0.25,0.762-0.37,1.319-0.37h6.777
		c0.408,0,0.783,0.082,1.12,0.248c0.342,0.171,0.641,0.414,0.899,0.74l4.801,5.863c0.055,0.063,0.099,0.106,0.137,0.129
		c0.039,0.022,0.083,0.032,0.139,0.032c0.043,0,0.093-0.017,0.143-0.055c0.055-0.038,0.105-0.083,0.148-0.138l5.364-5.866
		c0.315-0.353,0.624-0.601,0.921-0.743c0.304-0.14,0.662-0.211,1.071-0.211h6.351c0.601,0,1.059,0.12,1.362,0.37
		c0.309,0.247,0.465,0.622,0.465,1.121c0,0.202-0.045,0.389-0.133,0.572c-0.083,0.176-0.22,0.359-0.402,0.54l-8.277,8.386
		c-0.017,0.015-0.044,0.033-0.078,0.067c-0.077,0.065-0.116,0.128-0.116,0.194c0,0.077,0.011,0.139,0.033,0.193
		c0.023,0.055,0.066,0.115,0.133,0.177l8.497,8.729c0.177,0.193,0.297,0.391,0.38,0.591c0.084,0.2,0.123,0.413,0.123,0.639
		c0,0.432-0.16,0.772-0.476,1.021c-0.32,0.25-0.756,0.37-1.319,0.37h-7.046c-0.398,0-0.778-0.088-1.131-0.265
		c-0.359-0.182-0.663-0.431-0.922-0.757L34.829,36.066z M59.449,29.555v3.312c0,0.583-0.149,1.024-0.447,1.316
		c-0.298,0.299-0.733,0.449-1.318,0.449h-5.811c-0.585,0-1.021-0.15-1.319-0.449c-0.297-0.292-0.445-0.733-0.445-1.316v-3.312
		c0-0.573,0.148-1.011,0.445-1.302c0.298-0.3,0.734-0.447,1.319-0.447h5.811c0.585,0,1.021,0.147,1.318,0.447
		C59.3,28.544,59.449,28.981,59.449,29.555z M51.972,28.532c-0.414,0-0.702,0.085-0.861,0.245c-0.159,0.161-0.243,0.457-0.243,0.887
		v3.107c0,0.42,0.084,0.711,0.243,0.884c0.159,0.164,0.447,0.247,0.861,0.247h5.618c0.408,0,0.695-0.083,0.855-0.247
		c0.161-0.173,0.243-0.464,0.243-0.884v-3.107c0-0.43-0.083-0.726-0.243-0.887c-0.16-0.16-0.447-0.245-0.855-0.245H51.972z
		 M57.926,32.738c0,0.149-0.039,0.262-0.11,0.331c-0.078,0.072-0.199,0.106-0.359,0.106h-5.391c-0.159,0-0.27-0.034-0.331-0.1
		c-0.061-0.063-0.088-0.178-0.088-0.338v-3.006c0-0.172,0.027-0.288,0.088-0.349s0.172-0.088,0.331-0.088h5.391
		c0.161,0,0.282,0.033,0.359,0.106c0.071,0.07,0.11,0.179,0.11,0.33V32.738z M76.042,41.329c0,0.586-0.149,1.025-0.447,1.32
		c-0.298,0.298-0.734,0.446-1.319,0.446h-5.06c-0.584,0-1.021-0.148-1.317-0.446c-0.299-0.295-0.448-0.734-0.448-1.32V26.918
		c0-0.161-0.033-0.276-0.104-0.337c-0.072-0.065-0.188-0.102-0.349-0.102h-7.669c-0.585,0-1.021-0.147-1.319-0.449
		c-0.298-0.305-0.447-0.753-0.447-1.348v-2.811c0-0.583,0.149-1.021,0.447-1.312c0.298-0.292,0.734-0.436,1.319-0.436h24.819
		c0.585,0,1.026,0.148,1.33,0.445c0.303,0.295,0.452,0.729,0.452,1.302v2.811c0,0.584-0.155,1.033-0.462,1.335
		c-0.305,0.31-0.746,0.462-1.32,0.462h-7.67c-0.16,0-0.275,0.036-0.336,0.102c-0.066,0.061-0.099,0.176-0.099,0.337V41.329z
		 M69.314,42.368h4.861c0.414,0,0.701-0.084,0.862-0.25c0.16-0.169,0.242-0.463,0.242-0.883V26.834c0-0.419,0.083-0.712,0.243-0.872
		c0.16-0.159,0.441-0.242,0.844-0.242h7.713c0.404,0,0.679-0.082,0.828-0.243c0.149-0.16,0.226-0.458,0.226-0.888V21.97
		c0-0.432-0.077-0.725-0.226-0.878c-0.149-0.161-0.424-0.24-0.828-0.24H59.421c-0.409,0-0.695,0.085-0.855,0.243
		c-0.161,0.161-0.243,0.454-0.243,0.875v2.619c0,0.42,0.082,0.711,0.243,0.883c0.16,0.166,0.446,0.248,0.855,0.248h7.703
		c0.415,0,0.702,0.083,0.861,0.242c0.16,0.16,0.244,0.453,0.244,0.872v14.401c0,0.42,0.077,0.714,0.237,0.883
		C68.619,42.284,68.9,42.368,69.314,42.368z M84.373,22.001v2.556c0,0.159-0.033,0.275-0.098,0.336
		c-0.062,0.067-0.177,0.1-0.338,0.1h-7.669c-0.584,0-1.021,0.147-1.313,0.447c-0.292,0.292-0.437,0.729-0.437,1.302v14.428
		c0,0.16-0.038,0.282-0.115,0.353c-0.071,0.076-0.193,0.117-0.354,0.117h-4.64c-0.15,0-0.26-0.033-0.32-0.104
		c-0.066-0.072-0.099-0.193-0.099-0.365V26.741c0-0.573-0.149-1.01-0.447-1.302c-0.298-0.3-0.734-0.447-1.319-0.447h-7.67
		c-0.158,0-0.281-0.032-0.357-0.105c-0.072-0.071-0.112-0.182-0.112-0.33v-2.556c0-0.15,0.034-0.259,0.105-0.32
		c0.071-0.064,0.193-0.099,0.363-0.099h24.383c0.161,0,0.276,0.034,0.338,0.099C84.34,21.742,84.373,21.851,84.373,22.001z
		 M114.838,21.872v2.811c0,0.584-0.156,1.033-0.463,1.335c-0.306,0.31-0.752,0.462-1.336,0.462H97.434
		c-0.17,0-0.292,0.036-0.363,0.102c-0.073,0.061-0.106,0.176-0.106,0.337v0.981c0,0.149,0.033,0.259,0.106,0.332
		c0.071,0.072,0.192,0.104,0.363,0.104h15.605c0.584,0,1.03,0.149,1.336,0.451c0.307,0.305,0.463,0.745,0.463,1.331v2.808
		c0,0.587-0.156,1.033-0.463,1.336c-0.306,0.309-0.752,0.464-1.336,0.464H97.434c-0.17,0-0.292,0.034-0.363,0.1
		c-0.073,0.063-0.106,0.17-0.106,0.319v1.16c0,0.148,0.033,0.259,0.106,0.33c0.071,0.071,0.192,0.105,0.363,0.105h15.605
		c0.584,0,1.03,0.149,1.336,0.446c0.307,0.292,0.463,0.729,0.463,1.302v2.842c0,0.586-0.156,1.025-0.463,1.32
		c-0.306,0.298-0.752,0.446-1.336,0.446H90.14c-0.586,0-1.022-0.148-1.319-0.446c-0.298-0.295-0.447-0.734-0.447-1.32V21.872
		c0-0.583,0.148-1.021,0.447-1.312c0.297-0.292,0.733-0.436,1.319-0.436h22.899c0.584,0,1.03,0.148,1.336,0.445
		C114.682,20.865,114.838,21.3,114.838,21.872z M90.239,20.852c-0.414,0-0.695,0.085-0.851,0.243
		c-0.16,0.161-0.236,0.454-0.236,0.875v19.266c0,0.42,0.076,0.714,0.236,0.883c0.155,0.166,0.437,0.25,0.851,0.25h22.734
		c0.4,0,0.679-0.084,0.833-0.243c0.161-0.16,0.236-0.46,0.236-0.89v-2.654c0-0.418-0.075-0.711-0.236-0.871
		c-0.154-0.16-0.433-0.243-0.833-0.243H97.29c-0.403,0-0.685-0.084-0.844-0.248c-0.16-0.171-0.244-0.463-0.244-0.883v-1.257
		c0-0.42,0.083-0.713,0.244-0.873c0.159-0.16,0.441-0.243,0.844-0.243h15.683c0.4,0,0.679-0.081,0.833-0.241
		c0.161-0.16,0.236-0.459,0.236-0.89v-2.62c0-0.431-0.075-0.723-0.236-0.878c-0.154-0.158-0.433-0.236-0.833-0.236H97.29
		c-0.403,0-0.685-0.084-0.844-0.25c-0.16-0.17-0.244-0.463-0.244-0.883v-1.131c0-0.419,0.083-0.712,0.244-0.872
		c0.159-0.159,0.441-0.242,0.844-0.242h15.683c0.4,0,0.679-0.082,0.833-0.243c0.161-0.16,0.236-0.458,0.236-0.888V21.97
		c0-0.432-0.075-0.725-0.236-0.878c-0.154-0.161-0.433-0.24-0.833-0.24H90.239z M113.28,41.169c0,0.172-0.034,0.293-0.105,0.365
		c-0.068,0.071-0.182,0.104-0.33,0.104H90.365c-0.16,0-0.275-0.033-0.348-0.104c-0.072-0.072-0.104-0.193-0.104-0.365V22.001
		c0-0.15,0.032-0.259,0.098-0.32c0.061-0.064,0.183-0.099,0.354-0.099h22.479c0.148,0,0.262,0.034,0.33,0.099
		c0.071,0.062,0.105,0.17,0.105,0.32v2.556c0,0.159-0.034,0.275-0.105,0.336c-0.068,0.067-0.182,0.1-0.33,0.1H97.191
		c-0.585,0-1.021,0.147-1.314,0.447c-0.291,0.292-0.435,0.729-0.435,1.302v1.318c0,0.585,0.144,1.025,0.435,1.318
		c0.292,0.299,0.729,0.447,1.314,0.447h15.654c0.148,0,0.262,0.032,0.33,0.098c0.071,0.062,0.105,0.173,0.105,0.321v2.555
		c0,0.159-0.034,0.277-0.105,0.338c-0.068,0.066-0.182,0.099-0.33,0.099H97.191c-0.585,0-1.021,0.144-1.314,0.437
		c-0.291,0.291-0.435,0.728-0.435,1.313v1.451c0,0.579,0.144,1.021,0.435,1.314c0.292,0.298,0.729,0.446,1.314,0.446h15.654
		c0.148,0,0.262,0.031,0.33,0.104c0.071,0.071,0.105,0.194,0.105,0.362V41.169z M147.126,24.826v1.247
		c0,0.622-0.182,1.121-0.551,1.479c-0.364,0.358-0.877,0.541-1.532,0.541h-4.559c-0.455,0-0.812-0.078-1.078-0.226
		c-0.264-0.148-0.522-0.438-0.784-0.856c0-0.011,0-0.017,0-0.017c-0.159-0.26-0.367-0.387-0.628-0.387h-10.854
		c-0.203,0-0.342,0.039-0.412,0.112c-0.071,0.076-0.104,0.226-0.104,0.452v8.877c0,0.216,0.033,0.357,0.098,0.424
		c0.063,0.072,0.205,0.106,0.419,0.106h10.854c0.194,0,0.333-0.034,0.413-0.106c0.079-0.07,0.174-0.241,0.282-0.524
		c0.137-0.395,0.346-0.672,0.607-0.834c0.264-0.152,0.655-0.228,1.188-0.228h4.559c0.655,0,1.168,0.179,1.532,0.538
		c0.369,0.359,0.551,0.856,0.551,1.479v1.492c0,1.334-0.452,2.448-1.35,3.348c-0.899,0.899-2.017,1.353-3.341,1.353h-19.697
		c-1.336,0-2.462-0.453-3.369-1.357c-0.912-0.905-1.372-2.021-1.372-3.343V24.826c0-1.336,0.46-2.451,1.372-3.35
		c0.907-0.899,2.033-1.352,3.369-1.352h19.697c1.324,0,2.441,0.452,3.341,1.352C146.674,22.375,147.126,23.49,147.126,24.826z
		 M122.738,20.852c-1.12,0-2.063,0.385-2.831,1.139c-0.767,0.761-1.146,1.704-1.146,2.836v13.569c0,1.131,0.38,2.072,1.146,2.834
		c0.768,0.756,1.711,1.139,2.831,1.139h19.697c1.12,0,2.06-0.383,2.806-1.139c0.749-0.762,1.125-1.703,1.125-2.834v-1.492
		c0-0.418-0.116-0.737-0.344-0.959c-0.227-0.222-0.55-0.33-0.979-0.33h-4.559c-0.388,0-0.697,0.092-0.924,0.278
		c-0.226,0.19-0.334,0.443-0.334,0.754c0,0.138-0.122,0.286-0.364,0.435c-0.243,0.147-0.529,0.226-0.868,0.226h-10.854
		c-0.435,0-0.763-0.104-0.982-0.319c-0.219-0.216-0.328-0.53-0.328-0.938v-8.877c0-0.421,0.114-0.74,0.341-0.962
		c0.226-0.22,0.547-0.329,0.97-0.329h10.854c0.307,0,0.541,0.048,0.719,0.143c0.18,0.099,0.348,0.281,0.514,0.552
		c0.01,0.021,0.021,0.046,0.043,0.077c0.281,0.476,0.683,0.712,1.215,0.712h4.559c0.43,0,0.753-0.111,0.979-0.332
		c0.228-0.218,0.344-0.539,0.344-0.959v-1.247c0-1.132-0.376-2.075-1.125-2.836c-0.746-0.754-1.686-1.139-2.806-1.139H122.738z
		 M122.738,21.582h19.697c0.895,0,1.646,0.31,2.259,0.927c0.607,0.622,0.91,1.396,0.91,2.317v1.247c0,0.202-0.04,0.348-0.108,0.424
		c-0.078,0.084-0.227,0.138-0.444,0.173h-4.567c-0.136,0-0.247-0.018-0.328-0.055c-0.071-0.04-0.142-0.118-0.208-0.238
		c-0.321-0.536-0.613-0.878-0.877-1.014c-0.264-0.141-0.624-0.211-1.077-0.211h-10.854c-0.64,0-1.146,0.18-1.523,0.553
		c-0.379,0.362-0.567,0.854-0.567,1.467v8.877c0,0.624,0.188,1.121,0.559,1.479c0.375,0.359,0.882,0.541,1.532,0.541h10.854
		c0.531,0,0.934-0.094,1.214-0.276c0.276-0.181,0.526-0.563,0.74-1.142c0.046-0.121,0.101-0.198,0.172-0.244
		c0.069-0.043,0.193-0.063,0.364-0.063h4.559c0.214,0,0.357,0.037,0.44,0.119c0.081,0.079,0.121,0.228,0.121,0.441v1.492
		c0,0.91-0.303,1.683-0.91,2.307c-0.612,0.623-1.364,0.937-2.259,0.937h-19.697c-0.903,0-1.661-0.313-2.269-0.937
		c-0.612-0.624-0.914-1.396-0.914-2.307V24.826c0-0.921,0.302-1.695,0.914-2.317C121.077,21.892,121.835,21.582,122.738,21.582z
		 M157.273,27.641c0,0.616,0.188,1.109,0.559,1.472c0.374,0.372,0.882,0.552,1.534,0.552h12.37c0.646,0,1.157-0.18,1.528-0.54
		c0.369-0.364,0.561-0.854,0.561-1.483v-5.64c0-0.15,0.029-0.259,0.096-0.32c0.062-0.064,0.171-0.099,0.32-0.099h4.642
		c0.169,0,0.291,0.034,0.364,0.099c0.072,0.062,0.105,0.17,0.105,0.32v19.168c-0.012,0.172-0.05,0.293-0.124,0.365
		c-0.071,0.071-0.188,0.104-0.346,0.104h-4.642c-0.149,0-0.259-0.033-0.32-0.104c-0.066-0.072-0.096-0.193-0.096-0.365v-6.086
		c0-0.617-0.191-1.108-0.566-1.474c-0.379-0.369-0.888-0.551-1.522-0.551h-12.37c-0.652,0-1.16,0.182-1.534,0.54
		c-0.371,0.364-0.559,0.857-0.559,1.484v6.086c0,0.16-0.037,0.282-0.114,0.359c-0.071,0.069-0.192,0.11-0.354,0.11h-4.607
		c-0.159,0-0.276-0.033-0.345-0.104c-0.074-0.072-0.106-0.193-0.106-0.365V22.001c0-0.15,0.032-0.259,0.099-0.32
		c0.062-0.064,0.182-0.099,0.353-0.099h4.607c0.162,0,0.283,0.034,0.354,0.099c0.077,0.062,0.114,0.17,0.114,0.32V27.641z
		 M152.071,20.852c-0.413,0-0.695,0.085-0.851,0.243c-0.16,0.161-0.236,0.454-0.236,0.875v19.266c0,0.42,0.076,0.714,0.236,0.883
		c0.155,0.166,0.438,0.25,0.851,0.25h4.863c0.411,0,0.699-0.084,0.858-0.25c0.16-0.169,0.243-0.463,0.243-0.883v-6.152
		c0-0.413,0.115-0.728,0.343-0.948c0.226-0.221,0.548-0.331,0.987-0.331h12.37c0.42,0,0.744,0.11,0.977,0.331
		s0.348,0.535,0.348,0.948v6.152c0,0.42,0.077,0.714,0.236,0.883c0.156,0.166,0.437,0.25,0.851,0.25h4.861
		c0.413,0,0.699-0.084,0.859-0.25c0.162-0.169,0.245-0.463,0.245-0.883V21.97c0-0.421-0.083-0.714-0.245-0.875
		c-0.16-0.158-0.446-0.243-0.859-0.243h-4.861c-0.414,0-0.694,0.085-0.851,0.243c-0.159,0.161-0.236,0.454-0.236,0.875v5.671
		c0,0.413-0.11,0.723-0.337,0.932c-0.226,0.211-0.557,0.314-0.987,0.314h-12.37c-0.447,0-0.778-0.104-0.998-0.314
		c-0.223-0.209-0.332-0.519-0.332-0.932V21.97c0-0.421-0.083-0.714-0.243-0.875c-0.159-0.158-0.447-0.243-0.858-0.243H152.071z
		 M159.366,28.158h12.37c0.214,0,0.36-0.027,0.42-0.086c0.065-0.063,0.101-0.173,0.101-0.333v-0.099v-5.769
		c0-0.572,0.154-1.007,0.456-1.302c0.309-0.297,0.757-0.445,1.335-0.445h5.06c0.587,0,1.022,0.144,1.32,0.436
		c0.299,0.291,0.446,0.729,0.446,1.312v19.457c0,0.586-0.147,1.025-0.446,1.32c-0.298,0.298-0.733,0.446-1.32,0.446h-5.06
		c-0.578,0-1.021-0.148-1.318-0.446c-0.292-0.295-0.452-0.734-0.473-1.32v-6.246c0-0.22-0.035-0.362-0.106-0.441
		c-0.071-0.072-0.21-0.109-0.414-0.109h-12.37c-0.205,0-0.347,0.027-0.421,0.088c-0.078,0.06-0.117,0.17-0.117,0.33v0.133v6.246
		c0,0.586-0.146,1.025-0.449,1.32c-0.305,0.298-0.753,0.446-1.346,0.446h-5.063c-0.584,0-1.019-0.148-1.317-0.446
		c-0.299-0.295-0.448-0.734-0.448-1.32V21.872c0-0.583,0.149-1.021,0.448-1.312c0.299-0.292,0.733-0.436,1.317-0.436h5.063
		c0.582,0,1.024,0.144,1.315,0.436c0.299,0.291,0.458,0.734,0.479,1.331v5.749c0,0.214,0.033,0.358,0.106,0.419
		C159.008,28.125,159.15,28.158,159.366,28.158z"/>
</g>
<g id="MasterLayer_1">
</g>
</svg>
