<?xml version="1.0" encoding="utf-8"?>
<!-- Generator: Adobe Illustrator 16.0.0, SVG Export Plug-In . SVG Version: 6.00 Build 0)  -->
<!DOCTYPE svg PUBLIC "-//W3C//DTD SVG 1.1//EN" "http://www.w3.org/Graphics/SVG/1.1/DTD/svg11.dtd">
<svg version="1.1" xmlns="http://www.w3.org/2000/svg" xmlns:xlink="http://www.w3.org/1999/xlink" x="0px" y="0px" width="170px"
	 height="65px" viewBox="0 0 170 65" enable-background="new 0 0 170 65" xml:space="preserve">
<g id="cdr_x5F_object">
	<path fill-rule="evenodd" clip-rule="evenodd" fill="#61B947" stroke="#000000" stroke-width="0" stroke-miterlimit="10" d="
		M20.241,27.843l5.454-5.947c0.105-0.11,0.222-0.183,0.338-0.227c0.122-0.045,0.271-0.066,0.454-0.066H32.7
		c0.056,0,0.094,0.011,0.122,0.033c0.028,0.021,0.044,0.055,0.044,0.094c0,0.022-0.005,0.05-0.017,0.078
		c-0.011,0.022-0.028,0.044-0.05,0.056l-8.079,8.172l-0.049,0.05c-0.477,0.521-0.714,0.97-0.714,1.346
		c0,0.25,0.061,0.482,0.171,0.698c0.117,0.216,0.311,0.47,0.592,0.758l8.273,8.583c0.022,0.012,0.039,0.033,0.05,0.056
		c0.01,0.027,0.016,0.056,0.016,0.077c0,0.027-0.016,0.062-0.05,0.089c-0.033,0.028-0.072,0.039-0.111,0.039h-6.944
		c-0.177,0-0.332-0.028-0.47-0.084c-0.144-0.05-0.25-0.127-0.327-0.227l-4.884-6.34c-0.182-0.238-0.398-0.421-0.647-0.542
		c-0.249-0.129-0.521-0.189-0.809-0.189c-0.293,0-0.564,0.066-0.814,0.194c-0.249,0.133-0.498,0.344-0.748,0.637l-5.382,6.24
		c-0.089,0.111-0.194,0.188-0.327,0.238c-0.127,0.05-0.288,0.072-0.471,0.072H4.798c-0.049,0-0.094-0.011-0.127-0.039
		c-0.033-0.027-0.05-0.062-0.05-0.089c0-0.021,0.006-0.044,0.017-0.066c0.011-0.021,0.028-0.044,0.05-0.066l8.146-8.384
		c0.321-0.348,0.532-0.614,0.62-0.803c0.094-0.188,0.139-0.397,0.139-0.625s-0.056-0.455-0.172-0.676
		c-0.111-0.222-0.31-0.482-0.587-0.786l-8.062-8.333c-0.034-0.023-0.055-0.039-0.061-0.056c-0.005-0.018-0.011-0.045-0.022-0.078
		c0.012-0.05,0.028-0.089,0.055-0.105c0.028-0.016,0.067-0.021,0.123-0.021h6.667c0.183,0,0.338,0.021,0.454,0.071
		c0.122,0.05,0.222,0.122,0.31,0.222l4.851,5.98c0.238,0.282,0.476,0.492,0.714,0.626c0.238,0.139,0.493,0.204,0.758,0.204
		c0.283,0,0.554-0.065,0.803-0.193C19.676,28.38,19.954,28.158,20.241,27.843z M19.61,27.438c-0.139,0.16-0.288,0.288-0.443,0.377
		c-0.161,0.083-0.31,0.127-0.449,0.127c-0.183,0-0.349-0.039-0.487-0.116c-0.139-0.072-0.283-0.193-0.421-0.354l-4.785-5.902
		c-0.188-0.238-0.404-0.415-0.658-0.526c-0.255-0.116-0.554-0.172-0.903-0.172H4.771c-0.316,0-0.554,0.066-0.709,0.206
		c-0.155,0.132-0.232,0.331-0.232,0.592c0,0.194,0.11,0.409,0.337,0.647c0.045,0.056,0.072,0.083,0.083,0.095l8.079,8.356
		c0.172,0.16,0.293,0.309,0.366,0.442c0.066,0.138,0.105,0.277,0.105,0.415c0,0.149-0.033,0.288-0.1,0.415
		c-0.066,0.122-0.199,0.288-0.404,0.492l-8.129,8.373c-0.171,0.172-0.288,0.315-0.349,0.426c-0.061,0.117-0.088,0.238-0.088,0.366
		c0,0.249,0.077,0.437,0.227,0.57c0.15,0.127,0.371,0.193,0.665,0.193h6.362c0.354,0,0.654-0.05,0.892-0.155
		c0.238-0.1,0.471-0.282,0.698-0.542l5.172-6.014c0.205-0.222,0.393-0.371,0.56-0.465c0.171-0.094,0.348-0.138,0.542-0.138
		c0.188,0,0.355,0.037,0.504,0.12c0.156,0.084,0.283,0.2,0.394,0.35l4.718,6.113c0.205,0.249,0.432,0.432,0.675,0.554
		c0.244,0.116,0.526,0.177,0.847,0.177h7.01c0.304,0,0.537-0.066,0.698-0.205c0.161-0.132,0.243-0.332,0.243-0.592
		c0-0.139-0.027-0.261-0.083-0.366c-0.05-0.1-0.161-0.231-0.321-0.393l-8.306-8.582c-0.155-0.15-0.266-0.294-0.333-0.422
		c-0.072-0.133-0.105-0.266-0.105-0.404c0-0.154,0.039-0.298,0.111-0.438c0.078-0.144,0.194-0.292,0.36-0.453l8.045-8.212
		c0.183-0.193,0.299-0.338,0.349-0.438c0.05-0.094,0.071-0.205,0.071-0.321c0-0.25-0.077-0.438-0.227-0.571
		c-0.149-0.127-0.371-0.193-0.665-0.193h-6.246c-0.36,0-0.648,0.05-0.875,0.144c-0.227,0.101-0.465,0.283-0.714,0.555L19.61,27.438z
		 M19.173,36.138c-0.044-0.056-0.1-0.105-0.171-0.155c-0.067-0.049-0.133-0.071-0.183-0.071c-0.066,0-0.138,0.022-0.222,0.071
		c-0.083,0.05-0.155,0.116-0.221,0.205l-5.205,6.047c-0.293,0.338-0.593,0.581-0.908,0.73c-0.316,0.149-0.676,0.228-1.085,0.228
		H4.771c-0.609,0-1.069-0.128-1.374-0.389c-0.31-0.26-0.465-0.642-0.465-1.135c0-0.232,0.033-0.421,0.105-0.581
		c0.072-0.155,0.205-0.332,0.398-0.526l8.372-8.593c0.011-0.012,0.028-0.029,0.05-0.051c0.094-0.1,0.144-0.183,0.144-0.26
		c0-0.066-0.044-0.155-0.127-0.277c-0.011-0.021-0.022-0.038-0.033-0.05l-8.306-8.577c-0.183-0.193-0.321-0.393-0.41-0.593
		c-0.083-0.199-0.127-0.409-0.127-0.625c0-0.432,0.161-0.775,0.476-1.024c0.321-0.25,0.764-0.371,1.323-0.371h6.8
		c0.409,0,0.786,0.083,1.124,0.249c0.343,0.172,0.643,0.416,0.903,0.742l4.817,5.886c0.055,0.062,0.1,0.105,0.138,0.128
		c0.039,0.021,0.083,0.032,0.139,0.032c0.044,0,0.094-0.017,0.144-0.055c0.055-0.039,0.105-0.083,0.149-0.139l5.383-5.886
		c0.315-0.354,0.625-0.604,0.924-0.747c0.305-0.139,0.665-0.211,1.074-0.211h6.374c0.604,0,1.063,0.121,1.368,0.371
		c0.31,0.249,0.465,0.626,0.465,1.124c0,0.204-0.045,0.393-0.133,0.576c-0.083,0.177-0.221,0.359-0.404,0.542l-8.306,8.416
		c-0.017,0.013-0.044,0.033-0.078,0.067c-0.077,0.066-0.116,0.127-0.116,0.193c0,0.077,0.011,0.14,0.033,0.194
		c0.022,0.056,0.066,0.116,0.133,0.177l8.527,8.76c0.177,0.194,0.298,0.393,0.382,0.593c0.083,0.2,0.122,0.415,0.122,0.643
		c0,0.432-0.161,0.775-0.477,1.023c-0.321,0.251-0.758,0.372-1.323,0.372h-7.071c-0.398,0-0.78-0.088-1.135-0.266
		c-0.36-0.184-0.665-0.432-0.925-0.759L19.173,36.138z M43.88,29.604v3.322c0,0.587-0.15,1.03-0.449,1.323
		c-0.299,0.3-0.736,0.449-1.323,0.449h-5.831c-0.587,0-1.025-0.149-1.324-0.449c-0.299-0.293-0.448-0.736-0.448-1.323v-3.322
		c0-0.575,0.149-1.014,0.448-1.306c0.299-0.3,0.737-0.449,1.324-0.449h5.831c0.587,0,1.024,0.149,1.323,0.449
		C43.73,28.59,43.88,29.028,43.88,29.604z M36.376,28.579c-0.415,0-0.703,0.083-0.863,0.244c-0.161,0.161-0.244,0.459-0.244,0.891
		v3.118c0,0.421,0.083,0.714,0.244,0.886c0.16,0.166,0.448,0.249,0.863,0.249h5.637c0.41,0,0.698-0.083,0.858-0.249
		c0.161-0.172,0.244-0.465,0.244-0.886v-3.118c0-0.432-0.083-0.729-0.244-0.891c-0.16-0.161-0.448-0.244-0.858-0.244H36.376z
		 M42.352,32.799c0,0.15-0.039,0.261-0.111,0.332c-0.078,0.072-0.199,0.105-0.36,0.105h-5.41c-0.161,0-0.271-0.033-0.333-0.1
		c-0.061-0.061-0.088-0.178-0.088-0.338v-3.018c0-0.172,0.027-0.288,0.088-0.35c0.061-0.061,0.172-0.088,0.333-0.088h5.41
		c0.161,0,0.282,0.032,0.36,0.105c0.072,0.071,0.111,0.182,0.111,0.332V32.799z M60.53,41.42c0,0.587-0.149,1.03-0.448,1.323
		c-0.299,0.299-0.737,0.449-1.324,0.449h-5.078c-0.587,0-1.024-0.15-1.323-0.449c-0.3-0.293-0.449-0.736-0.449-1.323V26.957
		c0-0.161-0.034-0.277-0.105-0.338c-0.072-0.066-0.188-0.101-0.349-0.101h-7.696c-0.587,0-1.024-0.148-1.324-0.453
		c-0.299-0.305-0.449-0.753-0.449-1.352v-2.818c0-0.587,0.15-1.024,0.449-1.317c0.299-0.294,0.736-0.438,1.324-0.438h24.906
		c0.587,0,1.03,0.149,1.334,0.448c0.305,0.294,0.455,0.73,0.455,1.307v2.818c0,0.587-0.155,1.036-0.465,1.341
		c-0.305,0.31-0.748,0.464-1.324,0.464h-7.697c-0.16,0-0.276,0.034-0.337,0.101c-0.066,0.061-0.1,0.177-0.1,0.338V41.42z
		 M53.78,42.461h4.878c0.416,0,0.704-0.083,0.865-0.249c0.16-0.171,0.243-0.465,0.243-0.887V26.873c0-0.42,0.083-0.713,0.244-0.874
		c0.161-0.16,0.443-0.244,0.847-0.244h7.741c0.405,0,0.681-0.083,0.831-0.243c0.149-0.161,0.227-0.459,0.227-0.891V21.99
		c0-0.432-0.078-0.726-0.227-0.88c-0.15-0.161-0.426-0.239-0.831-0.239H43.852c-0.41,0-0.698,0.083-0.858,0.244
		c-0.161,0.16-0.243,0.454-0.243,0.875v2.631c0,0.42,0.083,0.713,0.243,0.886c0.161,0.165,0.449,0.248,0.858,0.248h7.729
		c0.416,0,0.704,0.084,0.864,0.244c0.161,0.161,0.244,0.454,0.244,0.874v14.452c0,0.422,0.078,0.716,0.238,0.887
		C53.083,42.378,53.365,42.461,53.78,42.461z M68.891,22.023v2.563c0,0.161-0.033,0.277-0.099,0.338
		c-0.061,0.067-0.177,0.1-0.338,0.1h-7.696c-0.586,0-1.024,0.149-1.318,0.449c-0.293,0.293-0.438,0.73-0.438,1.306v14.479
		c0,0.161-0.038,0.283-0.116,0.354c-0.072,0.078-0.194,0.117-0.354,0.117h-4.657c-0.15,0-0.26-0.033-0.321-0.105
		c-0.066-0.072-0.1-0.193-0.1-0.366V26.779c0-0.575-0.149-1.013-0.449-1.306c-0.299-0.3-0.736-0.449-1.323-0.449h-7.697
		c-0.16,0-0.282-0.032-0.359-0.105c-0.072-0.071-0.111-0.182-0.111-0.332v-2.563c0-0.149,0.033-0.261,0.105-0.321
		c0.072-0.066,0.193-0.1,0.365-0.1h24.469c0.161,0,0.277,0.033,0.338,0.1C68.858,21.763,68.891,21.874,68.891,22.023z
		 M99.463,21.896v2.818c0,0.587-0.156,1.036-0.465,1.341c-0.307,0.31-0.754,0.464-1.34,0.464H81.998
		c-0.171,0-0.292,0.034-0.364,0.101c-0.073,0.061-0.106,0.177-0.106,0.338v0.985c0,0.149,0.033,0.26,0.106,0.332
		c0.072,0.072,0.193,0.105,0.364,0.105h15.661c0.586,0,1.033,0.149,1.34,0.454c0.309,0.305,0.465,0.747,0.465,1.334v2.818
		c0,0.588-0.156,1.036-0.465,1.341c-0.307,0.31-0.754,0.465-1.34,0.465H81.998c-0.171,0-0.292,0.033-0.364,0.1
		c-0.073,0.062-0.106,0.172-0.106,0.32v1.164c0,0.149,0.033,0.261,0.106,0.332c0.072,0.072,0.193,0.105,0.364,0.105h15.661
		c0.586,0,1.033,0.149,1.34,0.448c0.309,0.293,0.465,0.73,0.465,1.307v2.852c0,0.587-0.156,1.03-0.465,1.323
		c-0.307,0.299-0.754,0.449-1.34,0.449h-22.98c-0.587,0-1.024-0.15-1.324-0.449c-0.299-0.293-0.449-0.736-0.449-1.323V21.896
		c0-0.587,0.149-1.024,0.449-1.317c0.299-0.294,0.736-0.438,1.324-0.438h22.98c0.586,0,1.033,0.149,1.34,0.448
		C99.307,20.883,99.463,21.319,99.463,21.896z M74.778,20.871c-0.416,0-0.698,0.083-0.853,0.244
		c-0.161,0.16-0.238,0.454-0.238,0.875v19.335c0,0.422,0.077,0.716,0.238,0.887c0.155,0.166,0.438,0.249,0.853,0.249h22.814
		c0.402,0,0.682-0.083,0.836-0.243c0.16-0.16,0.236-0.46,0.236-0.893v-2.663c0-0.42-0.076-0.714-0.236-0.874
		c-0.154-0.161-0.434-0.244-0.836-0.244H81.854c-0.405,0-0.687-0.083-0.847-0.249c-0.16-0.172-0.244-0.465-0.244-0.886v-1.262
		c0-0.422,0.084-0.716,0.244-0.876s0.442-0.244,0.847-0.244h15.738c0.402,0,0.682-0.083,0.836-0.243
		c0.16-0.16,0.236-0.46,0.236-0.892v-2.63c0-0.432-0.076-0.726-0.236-0.881c-0.154-0.16-0.434-0.237-0.836-0.237H81.854
		c-0.405,0-0.687-0.083-0.847-0.25c-0.16-0.171-0.244-0.465-0.244-0.886v-1.136c0-0.42,0.084-0.713,0.244-0.874
		c0.16-0.16,0.442-0.244,0.847-0.244h15.738c0.402,0,0.682-0.083,0.836-0.243c0.16-0.161,0.236-0.459,0.236-0.891V21.99
		c0-0.432-0.076-0.726-0.236-0.88c-0.154-0.161-0.434-0.239-0.836-0.239H74.778z M97.9,41.259c0,0.173-0.033,0.294-0.105,0.366
		c-0.07,0.072-0.182,0.105-0.332,0.105H74.905c-0.161,0-0.277-0.033-0.349-0.105c-0.072-0.072-0.105-0.193-0.105-0.366V22.023
		c0-0.149,0.033-0.261,0.1-0.321c0.061-0.066,0.183-0.1,0.354-0.1h22.558c0.15,0,0.262,0.033,0.332,0.1
		c0.072,0.061,0.105,0.172,0.105,0.321v2.563c0,0.161-0.033,0.277-0.105,0.338c-0.07,0.067-0.182,0.1-0.332,0.1H81.755
		c-0.587,0-1.025,0.149-1.318,0.449C80.144,25.767,80,26.204,80,26.779v1.324c0,0.587,0.145,1.029,0.437,1.323
		c0.293,0.299,0.731,0.448,1.318,0.448h15.708c0.15,0,0.262,0.033,0.332,0.1c0.072,0.061,0.105,0.172,0.105,0.321v2.563
		c0,0.161-0.033,0.277-0.105,0.338c-0.07,0.066-0.182,0.1-0.332,0.1H81.755c-0.587,0-1.025,0.145-1.318,0.438
		C80.144,34.027,80,34.465,80,35.052v1.457c0,0.581,0.145,1.024,0.437,1.318c0.293,0.299,0.731,0.448,1.318,0.448h15.708
		c0.15,0,0.262,0.032,0.332,0.104c0.072,0.072,0.105,0.194,0.105,0.365V41.259z M131.865,24.858v1.251
		c0,0.626-0.182,1.125-0.553,1.483c-0.365,0.36-0.881,0.544-1.539,0.544h-4.574c-0.455,0-0.813-0.078-1.08-0.228
		c-0.266-0.149-0.525-0.438-0.787-0.858c0-0.011,0-0.017,0-0.017c-0.16-0.26-0.369-0.388-0.631-0.388h-10.891
		c-0.205,0-0.344,0.039-0.414,0.111c-0.072,0.077-0.105,0.227-0.105,0.453v8.91c0,0.216,0.033,0.359,0.1,0.426
		c0.061,0.072,0.203,0.106,0.42,0.106h10.891c0.195,0,0.334-0.034,0.416-0.106c0.078-0.071,0.172-0.243,0.281-0.525
		c0.139-0.398,0.346-0.676,0.609-0.837c0.266-0.154,0.66-0.231,1.191-0.231h4.574c0.658,0,1.174,0.182,1.539,0.542
		c0.371,0.359,0.553,0.858,0.553,1.483v1.496c0,1.34-0.453,2.458-1.355,3.361c-0.902,0.901-2.021,1.356-3.352,1.356h-19.768
		c-1.34,0-2.469-0.455-3.381-1.362c-0.916-0.908-1.375-2.027-1.375-3.355V24.858c0-1.341,0.459-2.459,1.375-3.361
		c0.912-0.902,2.041-1.356,3.381-1.356h19.768c1.33,0,2.449,0.454,3.352,1.356S131.865,23.518,131.865,24.858z M107.391,20.871
		c-1.123,0-2.07,0.383-2.84,1.141c-0.77,0.765-1.15,1.712-1.15,2.847v13.616c0,1.135,0.381,2.081,1.15,2.846
		c0.77,0.759,1.717,1.141,2.84,1.141h19.768c1.125,0,2.066-0.382,2.814-1.141c0.754-0.765,1.129-1.711,1.129-2.846v-1.496
		c0-0.42-0.115-0.74-0.344-0.963c-0.227-0.222-0.553-0.332-0.984-0.332h-4.574c-0.389,0-0.697,0.094-0.926,0.282
		c-0.227,0.188-0.336,0.443-0.336,0.754c0,0.138-0.123,0.288-0.365,0.437c-0.244,0.149-0.531,0.228-0.871,0.228h-10.891
		c-0.438,0-0.766-0.105-0.986-0.321s-0.33-0.532-0.33-0.941v-8.91c0-0.421,0.115-0.741,0.342-0.963s0.549-0.332,0.975-0.332h10.891
		c0.307,0,0.543,0.05,0.721,0.144c0.182,0.101,0.35,0.282,0.516,0.555c0.01,0.021,0.021,0.044,0.043,0.077
		c0.283,0.476,0.688,0.714,1.219,0.714h4.574c0.432,0,0.758-0.11,0.984-0.332c0.229-0.221,0.344-0.543,0.344-0.964v-1.251
		c0-1.135-0.375-2.082-1.129-2.847c-0.748-0.758-1.689-1.141-2.814-1.141H107.391z M107.391,21.603h19.768
		c0.898,0,1.652,0.311,2.268,0.931c0.609,0.625,0.912,1.4,0.912,2.325v1.251c0,0.205-0.039,0.35-0.109,0.426
		c-0.078,0.084-0.227,0.14-0.445,0.173h-4.584c-0.137,0-0.248-0.017-0.328-0.056c-0.07-0.038-0.143-0.117-0.209-0.238
		c-0.32-0.537-0.615-0.88-0.881-1.019c-0.264-0.139-0.625-0.21-1.08-0.21h-10.891c-0.643,0-1.152,0.182-1.529,0.554
		c-0.381,0.364-0.57,0.858-0.57,1.472v8.91c0,0.626,0.189,1.124,0.561,1.483c0.377,0.36,0.885,0.543,1.539,0.543h10.891
		c0.533,0,0.938-0.095,1.219-0.276c0.277-0.183,0.527-0.565,0.742-1.146c0.045-0.121,0.1-0.199,0.172-0.244
		c0.07-0.044,0.195-0.065,0.365-0.065h4.574c0.217,0,0.359,0.038,0.443,0.121c0.082,0.078,0.121,0.228,0.121,0.442v1.496
		c0,0.913-0.303,1.688-0.912,2.314c-0.615,0.626-1.369,0.941-2.268,0.941h-19.768c-0.906,0-1.666-0.315-2.275-0.941
		c-0.615-0.626-0.918-1.401-0.918-2.314V24.858c0-0.925,0.303-1.7,0.918-2.325C105.725,21.913,106.484,21.603,107.391,21.603z
		 M142.049,27.683c0,0.619,0.188,1.113,0.561,1.479c0.375,0.371,0.885,0.553,1.539,0.553h12.414c0.648,0,1.162-0.182,1.533-0.542
		c0.371-0.365,0.561-0.858,0.561-1.489v-5.659c0-0.149,0.031-0.261,0.098-0.321c0.063-0.066,0.172-0.1,0.322-0.1h4.656
		c0.172,0,0.293,0.033,0.367,0.1c0.072,0.061,0.105,0.172,0.105,0.321v19.235c-0.012,0.173-0.051,0.294-0.125,0.366
		c-0.07,0.072-0.188,0.105-0.348,0.105h-4.656c-0.15,0-0.26-0.033-0.322-0.105c-0.066-0.072-0.098-0.193-0.098-0.366v-6.107
		c0-0.619-0.189-1.112-0.566-1.479c-0.381-0.37-0.891-0.553-1.527-0.553h-12.414c-0.654,0-1.164,0.183-1.539,0.542
		c-0.373,0.365-0.561,0.859-0.561,1.489v6.107c0,0.161-0.039,0.283-0.115,0.36c-0.072,0.072-0.193,0.111-0.355,0.111h-4.623
		c-0.16,0-0.277-0.033-0.348-0.105c-0.074-0.072-0.105-0.193-0.105-0.366V22.023c0-0.149,0.031-0.261,0.1-0.321
		c0.061-0.066,0.182-0.1,0.354-0.1h4.623c0.162,0,0.283,0.033,0.355,0.1c0.076,0.061,0.115,0.172,0.115,0.321V27.683z
		 M136.828,20.871c-0.416,0-0.697,0.083-0.854,0.244c-0.16,0.16-0.238,0.454-0.238,0.875v19.335c0,0.422,0.078,0.716,0.238,0.887
		c0.156,0.166,0.438,0.249,0.854,0.249h4.879c0.414,0,0.703-0.083,0.863-0.249c0.16-0.171,0.242-0.465,0.242-0.887v-6.174
		c0-0.415,0.117-0.73,0.346-0.951c0.227-0.223,0.551-0.333,0.99-0.333h12.414c0.422,0,0.746,0.11,0.979,0.333
		c0.234,0.221,0.35,0.536,0.35,0.951v6.174c0,0.422,0.078,0.716,0.238,0.887c0.156,0.166,0.438,0.249,0.852,0.249h4.879
		c0.416,0,0.703-0.083,0.863-0.249c0.162-0.171,0.246-0.465,0.246-0.887V21.99c0-0.421-0.084-0.715-0.246-0.875
		c-0.16-0.161-0.447-0.244-0.863-0.244h-4.879c-0.414,0-0.695,0.083-0.852,0.244c-0.16,0.16-0.238,0.454-0.238,0.875v5.692
		c0,0.415-0.109,0.726-0.338,0.936c-0.227,0.21-0.559,0.315-0.99,0.315h-12.414c-0.449,0-0.781-0.105-1.002-0.315
		c-0.223-0.21-0.334-0.521-0.334-0.936V21.99c0-0.421-0.082-0.715-0.242-0.875c-0.16-0.161-0.449-0.244-0.863-0.244H136.828z
		 M144.148,28.202h12.414c0.215,0,0.361-0.027,0.422-0.088c0.066-0.061,0.1-0.172,0.1-0.332v-0.1v-5.787
		c0-0.576,0.154-1.013,0.457-1.307c0.313-0.299,0.76-0.448,1.34-0.448h5.078c0.588,0,1.025,0.144,1.324,0.438
		c0.301,0.293,0.449,0.73,0.449,1.317V41.42c0,0.587-0.148,1.03-0.449,1.323c-0.299,0.299-0.736,0.449-1.324,0.449h-5.078
		c-0.58,0-1.023-0.15-1.32-0.449c-0.295-0.293-0.455-0.736-0.477-1.323v-6.269c0-0.221-0.033-0.364-0.105-0.442
		c-0.072-0.072-0.213-0.11-0.416-0.11h-12.414c-0.205,0-0.348,0.027-0.422,0.088c-0.078,0.061-0.117,0.172-0.117,0.333v0.132v6.269
		c0,0.587-0.148,1.03-0.451,1.323c-0.307,0.299-0.756,0.449-1.352,0.449h-5.078c-0.588,0-1.023-0.15-1.324-0.449
		c-0.299-0.293-0.449-0.736-0.449-1.323V21.896c0-0.587,0.15-1.024,0.449-1.317c0.301-0.294,0.736-0.438,1.324-0.438h5.078
		c0.584,0,1.029,0.144,1.322,0.438c0.299,0.293,0.459,0.737,0.48,1.335v5.77c0,0.216,0.033,0.359,0.105,0.421
		C143.789,28.169,143.932,28.202,144.148,28.202z"/>
</g>
<g id="MasterLayer_1">
</g>
</svg>
