<?xml version="1.0" encoding="utf-8"?>
<!-- Generator: Adobe Illustrator 16.0.0, SVG Export Plug-In . SVG Version: 6.00 Build 0)  -->
<!DOCTYPE svg PUBLIC "-//W3C//DTD SVG 1.1//EN" "http://www.w3.org/Graphics/SVG/1.1/DTD/svg11.dtd">
<svg version="1.1" xmlns="http://www.w3.org/2000/svg" xmlns:xlink="http://www.w3.org/1999/xlink" x="0px" y="0px" width="200px"
	 height="65px" viewBox="0 0 200 65" enable-background="new 0 0 200 65" xml:space="preserve">
<g id="cdr_x5F_object">
	
		<rect fill-rule="evenodd" clip-rule="evenodd" stroke="#000000" stroke-width="0" stroke-miterlimit="10" width="200" height="65"/>
	<path fill-rule="evenodd" clip-rule="evenodd" fill="#61B947" stroke="#000000" stroke-width="0" stroke-miterlimit="10" d="
		M29.595,26.666l6.05-6.597c0.117-0.123,0.246-0.203,0.374-0.251c0.136-0.051,0.301-0.073,0.504-0.073h6.892
		c0.062,0,0.104,0.012,0.135,0.037c0.031,0.023,0.049,0.061,0.049,0.104c0,0.023-0.006,0.055-0.019,0.087
		c-0.013,0.024-0.031,0.048-0.055,0.062l-8.962,9.063l-0.055,0.057c-0.528,0.578-0.792,1.075-0.792,1.492
		c0,0.278,0.067,0.534,0.19,0.774c0.129,0.24,0.344,0.521,0.657,0.84l9.177,9.522c0.025,0.013,0.043,0.036,0.056,0.062
		c0.012,0.03,0.018,0.063,0.018,0.085c0,0.03-0.018,0.068-0.055,0.098c-0.037,0.033-0.081,0.044-0.124,0.044h-7.703
		c-0.196,0-0.368-0.031-0.521-0.093c-0.16-0.055-0.277-0.141-0.363-0.251l-5.418-7.032c-0.202-0.264-0.442-0.467-0.718-0.603
		c-0.276-0.143-0.578-0.21-0.897-0.21c-0.325,0-0.626,0.074-0.903,0.217c-0.277,0.147-0.552,0.382-0.829,0.705l-5.971,6.923
		c-0.099,0.123-0.215,0.209-0.362,0.263c-0.141,0.057-0.319,0.081-0.522,0.081h-6.965c-0.055,0-0.104-0.011-0.141-0.044
		c-0.037-0.029-0.055-0.067-0.055-0.098c0-0.022,0.006-0.049,0.019-0.073c0.012-0.022,0.031-0.048,0.055-0.073l9.035-9.301
		c0.357-0.386,0.59-0.681,0.688-0.891c0.104-0.208,0.154-0.44,0.154-0.693c0-0.252-0.062-0.505-0.191-0.749
		c-0.123-0.246-0.344-0.535-0.651-0.873l-8.942-9.242c-0.038-0.026-0.061-0.044-0.068-0.062c-0.006-0.02-0.012-0.05-0.025-0.087
		c0.013-0.056,0.032-0.099,0.061-0.118c0.032-0.017,0.074-0.022,0.136-0.022h7.395c0.202,0,0.375,0.022,0.504,0.079
		c0.135,0.055,0.246,0.135,0.344,0.245l5.38,6.634c0.265,0.313,0.528,0.546,0.792,0.695c0.264,0.153,0.546,0.226,0.841,0.226
		c0.313,0,0.615-0.072,0.891-0.215C28.969,27.263,29.275,27.016,29.595,26.666z M28.896,26.219c-0.154,0.177-0.32,0.319-0.492,0.418
		c-0.178,0.091-0.344,0.141-0.497,0.141c-0.203,0-0.388-0.043-0.541-0.129c-0.154-0.081-0.314-0.215-0.467-0.394l-5.308-6.547
		c-0.207-0.265-0.448-0.46-0.73-0.584c-0.282-0.129-0.614-0.192-1.001-0.192h-7.426c-0.351,0-0.614,0.075-0.787,0.23
		c-0.171,0.146-0.257,0.366-0.257,0.656c0,0.216,0.122,0.454,0.374,0.719c0.05,0.062,0.08,0.091,0.093,0.104l8.961,9.27
		c0.191,0.179,0.326,0.342,0.406,0.491c0.073,0.152,0.116,0.308,0.116,0.46c0,0.166-0.037,0.318-0.11,0.46
		c-0.074,0.136-0.221,0.32-0.448,0.546l-9.018,9.288c-0.19,0.19-0.319,0.35-0.387,0.473c-0.067,0.13-0.098,0.265-0.098,0.406
		c0,0.275,0.085,0.484,0.251,0.633c0.165,0.14,0.411,0.215,0.737,0.215h7.057c0.394,0,0.725-0.057,0.989-0.173
		c0.265-0.11,0.522-0.313,0.774-0.602l5.737-6.67c0.227-0.246,0.437-0.412,0.621-0.517c0.19-0.104,0.386-0.152,0.602-0.152
		c0.208,0,0.394,0.04,0.559,0.134c0.173,0.093,0.314,0.223,0.437,0.387l5.233,6.781c0.227,0.276,0.479,0.48,0.749,0.615
		c0.27,0.128,0.584,0.196,0.939,0.196h7.776c0.337,0,0.596-0.075,0.774-0.229c0.178-0.146,0.27-0.369,0.27-0.656
		c0-0.153-0.031-0.289-0.091-0.406c-0.056-0.109-0.178-0.257-0.357-0.436l-9.213-9.52c-0.172-0.167-0.294-0.326-0.369-0.468
		c-0.079-0.147-0.117-0.295-0.117-0.449c0-0.171,0.043-0.33,0.123-0.484c0.086-0.16,0.216-0.324,0.4-0.503l8.924-9.109
		c0.203-0.214,0.332-0.374,0.387-0.484c0.056-0.104,0.08-0.229,0.08-0.356c0-0.278-0.085-0.486-0.251-0.635
		c-0.166-0.141-0.412-0.216-0.737-0.216h-6.928c-0.399,0-0.719,0.058-0.971,0.16c-0.251,0.111-0.517,0.314-0.792,0.616
		L28.896,26.219z M28.41,35.868c-0.05-0.062-0.11-0.117-0.19-0.172c-0.074-0.056-0.147-0.08-0.203-0.08
		c-0.073,0-0.153,0.024-0.246,0.08c-0.093,0.055-0.172,0.128-0.246,0.227l-5.773,6.709c-0.326,0.373-0.658,0.644-1.007,0.81
		c-0.351,0.165-0.75,0.252-1.204,0.252h-7.106c-0.676,0-1.187-0.142-1.524-0.432c-0.343-0.287-0.515-0.71-0.515-1.259
		c0-0.257,0.037-0.466,0.117-0.645c0.08-0.172,0.228-0.367,0.442-0.583l9.287-9.532c0.012-0.013,0.031-0.032,0.055-0.057
		c0.104-0.109,0.16-0.201,0.16-0.288c0-0.073-0.049-0.172-0.142-0.307c-0.012-0.025-0.024-0.043-0.037-0.056l-9.213-9.515
		c-0.203-0.215-0.356-0.436-0.454-0.657c-0.093-0.221-0.142-0.455-0.142-0.693c0-0.479,0.178-0.86,0.527-1.136
		c0.357-0.278,0.848-0.412,1.469-0.412h7.543c0.454,0,0.872,0.091,1.247,0.275c0.38,0.191,0.713,0.461,1.001,0.824l5.344,6.528
		c0.061,0.069,0.11,0.117,0.153,0.143c0.043,0.024,0.093,0.036,0.155,0.036c0.048,0,0.104-0.02,0.159-0.062
		c0.061-0.043,0.117-0.092,0.165-0.153l5.971-6.53c0.351-0.393,0.694-0.668,1.026-0.827c0.338-0.154,0.737-0.234,1.192-0.234h7.069
		c0.67,0,1.179,0.134,1.517,0.412c0.344,0.275,0.517,0.693,0.517,1.247c0,0.226-0.05,0.435-0.148,0.638
		c-0.092,0.196-0.245,0.4-0.448,0.602l-9.214,9.335c-0.018,0.016-0.049,0.037-0.086,0.075c-0.085,0.073-0.128,0.142-0.128,0.215
		c0,0.087,0.012,0.154,0.036,0.216c0.025,0.063,0.074,0.129,0.148,0.196l9.459,9.717c0.196,0.216,0.331,0.435,0.423,0.657
		c0.093,0.223,0.136,0.461,0.136,0.713c0,0.479-0.178,0.859-0.529,1.136c-0.356,0.278-0.841,0.412-1.468,0.412H35.86
		c-0.442,0-0.866-0.097-1.259-0.295c-0.4-0.202-0.738-0.479-1.026-0.842L28.41,35.868z M55.816,28.62v3.686
		c0,0.649-0.166,1.142-0.498,1.466c-0.332,0.333-0.816,0.5-1.468,0.5h-6.468c-0.651,0-1.137-0.167-1.468-0.5
		c-0.332-0.324-0.497-0.816-0.497-1.466V28.62c0-0.638,0.166-1.125,0.497-1.449c0.332-0.333,0.817-0.497,1.468-0.497h6.468
		c0.651,0,1.136,0.164,1.468,0.497C55.651,27.495,55.816,27.982,55.816,28.62z M47.493,27.482c-0.46,0-0.78,0.094-0.958,0.271
		c-0.178,0.18-0.271,0.51-0.271,0.988V32.2c0,0.468,0.093,0.792,0.271,0.984c0.177,0.184,0.498,0.275,0.958,0.275h6.254
		c0.454,0,0.773-0.092,0.952-0.275c0.179-0.192,0.27-0.517,0.27-0.984v-3.458c0-0.479-0.091-0.809-0.27-0.988
		c-0.178-0.178-0.498-0.271-0.952-0.271H47.493z M54.121,32.164c0,0.166-0.043,0.29-0.122,0.368c-0.086,0.081-0.221,0.118-0.4,0.118
		h-6.001c-0.177,0-0.301-0.037-0.368-0.11c-0.068-0.069-0.099-0.198-0.099-0.376v-3.347c0-0.19,0.03-0.32,0.099-0.388
		c0.067-0.068,0.191-0.098,0.368-0.098h6.001c0.179,0,0.313,0.036,0.4,0.117c0.079,0.079,0.122,0.2,0.122,0.368V32.164z
		 M74.287,41.728c0,0.651-0.166,1.142-0.497,1.469c-0.333,0.332-0.818,0.497-1.469,0.497h-5.632c-0.651,0-1.136-0.165-1.467-0.497
		c-0.333-0.327-0.498-0.817-0.498-1.469V25.685c0-0.18-0.037-0.308-0.117-0.375c-0.08-0.073-0.209-0.112-0.388-0.112h-8.537
		c-0.652,0-1.137-0.164-1.469-0.502c-0.332-0.338-0.498-0.837-0.498-1.499v-3.127c0-0.65,0.167-1.138,0.498-1.462
		c0.332-0.324,0.816-0.484,1.469-0.484H83.31c0.651,0,1.143,0.165,1.48,0.496c0.337,0.327,0.504,0.812,0.504,1.45v3.127
		c0,0.65-0.173,1.149-0.516,1.486c-0.338,0.345-0.83,0.515-1.469,0.515h-8.538c-0.178,0-0.307,0.039-0.375,0.112
		c-0.073,0.067-0.11,0.195-0.11,0.375V41.728z M66.799,42.883h5.411c0.46,0,0.781-0.093,0.959-0.277
		c0.178-0.188,0.27-0.516,0.27-0.982V25.591c0-0.466,0.092-0.791,0.271-0.97c0.178-0.178,0.491-0.271,0.939-0.271h8.586
		c0.449,0,0.755-0.092,0.922-0.271c0.166-0.178,0.252-0.509,0.252-0.987v-2.917c0-0.48-0.086-0.806-0.252-0.977
		c-0.167-0.18-0.473-0.268-0.922-0.268h-27.45c-0.455,0-0.774,0.095-0.952,0.271c-0.178,0.179-0.27,0.505-0.27,0.973v2.917
		c0,0.467,0.092,0.791,0.27,0.982c0.178,0.184,0.498,0.275,0.952,0.275h8.575c0.461,0,0.781,0.093,0.958,0.271
		c0.178,0.179,0.271,0.504,0.271,0.97v16.032c0,0.467,0.086,0.794,0.264,0.982C66.025,42.79,66.338,42.883,66.799,42.883z
		 M83.561,20.212v2.844c0,0.179-0.036,0.307-0.109,0.374c-0.068,0.075-0.197,0.111-0.375,0.111h-8.537
		c-0.651,0-1.137,0.165-1.462,0.497c-0.326,0.325-0.486,0.812-0.486,1.449v16.062c0,0.179-0.042,0.314-0.129,0.393
		c-0.079,0.086-0.215,0.13-0.393,0.13h-5.165c-0.167,0-0.29-0.036-0.356-0.116c-0.074-0.08-0.11-0.216-0.11-0.406V25.487
		c0-0.638-0.166-1.124-0.498-1.449c-0.332-0.332-0.817-0.497-1.468-0.497h-8.538c-0.177,0-0.313-0.036-0.398-0.118
		c-0.08-0.078-0.124-0.201-0.124-0.367v-2.844c0-0.167,0.037-0.289,0.117-0.356c0.08-0.073,0.214-0.11,0.405-0.11h27.143
		c0.179,0,0.307,0.037,0.375,0.11C83.524,19.923,83.561,20.045,83.561,20.212z M117.474,20.069v3.127
		c0,0.65-0.173,1.149-0.516,1.486c-0.34,0.345-0.836,0.515-1.486,0.515H98.1c-0.19,0-0.325,0.039-0.404,0.112
		c-0.081,0.067-0.118,0.195-0.118,0.375v1.093c0,0.166,0.037,0.288,0.118,0.369c0.079,0.08,0.214,0.116,0.404,0.116h17.372
		c0.65,0,1.146,0.166,1.486,0.503c0.343,0.338,0.516,0.828,0.516,1.48v3.125c0,0.653-0.173,1.15-0.516,1.488
		c-0.34,0.343-0.836,0.516-1.486,0.516H98.1c-0.19,0-0.325,0.037-0.404,0.11c-0.081,0.069-0.118,0.19-0.118,0.356v1.291
		c0,0.165,0.037,0.288,0.118,0.367c0.079,0.08,0.214,0.117,0.404,0.117h17.372c0.65,0,1.146,0.166,1.486,0.497
		c0.343,0.325,0.516,0.812,0.516,1.45v3.163c0,0.651-0.173,1.142-0.516,1.469c-0.34,0.332-0.836,0.497-1.486,0.497H89.98
		c-0.651,0-1.137-0.165-1.468-0.497c-0.332-0.327-0.498-0.817-0.498-1.469V20.069c0-0.65,0.166-1.138,0.498-1.462
		c0.332-0.324,0.817-0.484,1.468-0.484h25.491c0.65,0,1.146,0.165,1.486,0.496C117.301,18.946,117.474,19.431,117.474,20.069z
		 M90.091,18.932c-0.461,0-0.774,0.095-0.946,0.271c-0.178,0.179-0.263,0.505-0.263,0.973v21.447c0,0.467,0.085,0.794,0.263,0.982
		c0.172,0.185,0.485,0.277,0.946,0.277h25.307c0.446,0,0.757-0.093,0.928-0.271c0.179-0.178,0.263-0.511,0.263-0.989v-2.955
		c0-0.466-0.084-0.791-0.263-0.969c-0.171-0.18-0.481-0.271-0.928-0.271H97.94c-0.449,0-0.762-0.093-0.939-0.276
		c-0.178-0.19-0.271-0.515-0.271-0.982V34.77c0-0.468,0.093-0.793,0.271-0.972s0.491-0.271,0.939-0.271h17.457
		c0.446,0,0.757-0.092,0.928-0.27c0.179-0.178,0.263-0.51,0.263-0.989v-2.918c0-0.479-0.084-0.804-0.263-0.976
		c-0.171-0.178-0.481-0.265-0.928-0.265H97.94c-0.449,0-0.762-0.093-0.939-0.277c-0.178-0.189-0.271-0.515-0.271-0.982v-1.26
		c0-0.466,0.093-0.791,0.271-0.97c0.178-0.178,0.491-0.271,0.939-0.271h17.457c0.446,0,0.757-0.092,0.928-0.271
		c0.179-0.178,0.263-0.509,0.263-0.987v-2.917c0-0.48-0.084-0.806-0.263-0.977c-0.171-0.18-0.481-0.268-0.928-0.268H90.091z
		 M115.74,41.549c0,0.19-0.037,0.326-0.117,0.406c-0.077,0.08-0.202,0.116-0.367,0.116H90.232c-0.178,0-0.307-0.036-0.387-0.116
		c-0.08-0.08-0.116-0.216-0.116-0.406V20.212c0-0.167,0.037-0.289,0.11-0.356c0.067-0.073,0.203-0.11,0.394-0.11h25.024
		c0.165,0,0.29,0.037,0.367,0.11c0.08,0.067,0.117,0.189,0.117,0.356v2.844c0,0.179-0.037,0.307-0.117,0.374
		c-0.077,0.075-0.202,0.111-0.367,0.111H97.83c-0.651,0-1.137,0.165-1.462,0.497c-0.324,0.325-0.485,0.812-0.485,1.449v1.469
		c0,0.65,0.161,1.142,0.485,1.467c0.325,0.332,0.811,0.498,1.462,0.498h17.426c0.165,0,0.29,0.036,0.367,0.11
		c0.08,0.066,0.117,0.191,0.117,0.356v2.844c0,0.178-0.037,0.309-0.117,0.375c-0.077,0.074-0.202,0.111-0.367,0.111H97.83
		c-0.651,0-1.137,0.159-1.462,0.485c-0.324,0.324-0.485,0.81-0.485,1.46v1.616c0,0.645,0.161,1.137,0.485,1.463
		c0.325,0.331,0.811,0.497,1.462,0.497h17.426c0.165,0,0.29,0.035,0.367,0.116c0.08,0.079,0.117,0.216,0.117,0.403V41.549z
		 M153.416,23.356v1.388c0,0.693-0.201,1.248-0.612,1.646c-0.406,0.398-0.978,0.603-1.707,0.603h-5.074
		c-0.505,0-0.902-0.087-1.199-0.253c-0.294-0.165-0.582-0.485-0.872-0.952c0-0.012,0-0.019,0-0.019
		c-0.178-0.289-0.409-0.431-0.7-0.431H131.17c-0.227,0-0.381,0.044-0.459,0.125c-0.08,0.085-0.117,0.251-0.117,0.503v9.883
		c0,0.239,0.037,0.397,0.109,0.472c0.069,0.08,0.228,0.118,0.467,0.118h12.081c0.217,0,0.371-0.038,0.461-0.118
		c0.087-0.078,0.192-0.269,0.313-0.583c0.152-0.44,0.384-0.749,0.676-0.929c0.294-0.171,0.73-0.255,1.321-0.255h5.074
		c0.729,0,1.301,0.201,1.707,0.601c0.411,0.398,0.612,0.952,0.612,1.646v1.66c0,1.484-0.502,2.726-1.503,3.728
		c-1.001,1-2.243,1.505-3.718,1.505h-21.928c-1.487,0-2.739-0.505-3.75-1.511c-1.016-1.009-1.526-2.249-1.526-3.722V23.356
		c0-1.486,0.511-2.729,1.526-3.729c1.011-1,2.263-1.504,3.75-1.504h21.928c1.475,0,2.717,0.504,3.718,1.504
		C152.914,20.628,153.416,21.87,153.416,23.356z M126.268,18.932c-1.246,0-2.297,0.428-3.15,1.267
		c-0.854,0.849-1.276,1.898-1.276,3.158v15.104c0,1.259,0.423,2.308,1.276,3.156c0.854,0.841,1.904,1.266,3.15,1.266h21.928
		c1.247,0,2.292-0.425,3.123-1.266c0.834-0.849,1.252-1.897,1.252-3.156v-1.66c0-0.466-0.129-0.82-0.383-1.067
		c-0.251-0.247-0.612-0.369-1.091-0.369h-5.074c-0.432,0-0.774,0.104-1.027,0.313c-0.251,0.209-0.372,0.492-0.372,0.838
		c0,0.152-0.137,0.318-0.406,0.483c-0.271,0.165-0.588,0.252-0.966,0.252H131.17c-0.485,0-0.85-0.116-1.094-0.356
		s-0.366-0.59-0.366-1.044v-9.883c0-0.468,0.128-0.823,0.38-1.07c0.251-0.245,0.609-0.366,1.08-0.366h12.081
		c0.342,0,0.603,0.054,0.8,0.158c0.201,0.111,0.388,0.313,0.572,0.615c0.011,0.023,0.022,0.05,0.048,0.086
		c0.313,0.528,0.761,0.792,1.352,0.792h5.074c0.479,0,0.84-0.123,1.091-0.369c0.254-0.244,0.383-0.601,0.383-1.068v-1.388
		c0-1.26-0.418-2.31-1.252-3.158c-0.831-0.839-1.876-1.267-3.123-1.267H126.268z M126.268,19.745h21.928
		c0.996,0,1.833,0.344,2.515,1.031c0.676,0.693,1.013,1.555,1.013,2.58v1.388c0,0.227-0.045,0.388-0.121,0.473
		c-0.087,0.093-0.252,0.153-0.494,0.191h-5.085c-0.151,0-0.274-0.019-0.364-0.062c-0.079-0.043-0.158-0.13-0.231-0.265
		c-0.356-0.596-0.683-0.977-0.978-1.129c-0.292-0.155-0.693-0.234-1.198-0.234H131.17c-0.713,0-1.277,0.201-1.696,0.615
		c-0.423,0.403-0.633,0.952-0.633,1.633v9.883c0,0.694,0.21,1.247,0.622,1.646c0.419,0.399,0.982,0.603,1.707,0.603h12.081
		c0.593,0,1.04-0.105,1.352-0.308c0.309-0.202,0.586-0.627,0.824-1.271c0.05-0.134,0.11-0.221,0.19-0.271
		c0.078-0.048,0.216-0.071,0.405-0.071h5.074c0.239,0,0.398,0.042,0.491,0.134c0.09,0.087,0.135,0.253,0.135,0.491v1.66
		c0,1.013-0.337,1.873-1.013,2.567c-0.682,0.694-1.519,1.043-2.515,1.043h-21.928c-1.005,0-1.849-0.349-2.524-1.043
		c-0.682-0.694-1.018-1.555-1.018-2.567V23.356c0-1.025,0.336-1.887,1.018-2.58C124.419,20.089,125.263,19.745,126.268,19.745z
		 M164.713,26.488c0,0.688,0.208,1.236,0.621,1.64c0.417,0.413,0.982,0.614,1.707,0.614h13.771c0.72,0,1.289-0.201,1.702-0.602
		c0.411-0.405,0.622-0.951,0.622-1.652v-6.276c0-0.167,0.034-0.289,0.108-0.356c0.068-0.073,0.189-0.11,0.356-0.11h5.166
		c0.189,0,0.324,0.037,0.406,0.11c0.08,0.067,0.117,0.189,0.117,0.356v21.337c-0.013,0.19-0.056,0.326-0.139,0.406
		c-0.078,0.08-0.208,0.116-0.385,0.116h-5.166c-0.167,0-0.288-0.036-0.356-0.116c-0.074-0.08-0.108-0.216-0.108-0.406v-6.775
		c0-0.687-0.211-1.233-0.629-1.64c-0.422-0.411-0.988-0.613-1.695-0.613h-13.771c-0.725,0-1.29,0.202-1.707,0.602
		c-0.413,0.405-0.621,0.953-0.621,1.651v6.775c0,0.179-0.043,0.314-0.128,0.4c-0.08,0.078-0.214,0.122-0.395,0.122h-5.128
		c-0.178,0-0.308-0.036-0.385-0.116c-0.083-0.08-0.118-0.216-0.118-0.406V20.212c0-0.167,0.035-0.289,0.11-0.356
		c0.067-0.073,0.201-0.11,0.393-0.11h5.128c0.181,0,0.314,0.037,0.395,0.11c0.085,0.067,0.128,0.189,0.128,0.356V26.488z
		 M158.921,18.932c-0.46,0-0.772,0.095-0.946,0.271c-0.178,0.179-0.264,0.505-0.264,0.973v21.447c0,0.467,0.086,0.794,0.264,0.982
		c0.174,0.185,0.486,0.277,0.946,0.277h5.413c0.459,0,0.779-0.093,0.957-0.277c0.178-0.188,0.27-0.516,0.27-0.982v-6.85
		c0-0.46,0.129-0.81,0.383-1.055c0.251-0.246,0.61-0.37,1.098-0.37h13.771c0.469,0,0.828,0.124,1.087,0.37
		c0.26,0.245,0.388,0.595,0.388,1.055v6.85c0,0.467,0.086,0.794,0.264,0.982c0.173,0.185,0.485,0.277,0.946,0.277h5.411
		c0.46,0,0.779-0.093,0.957-0.277c0.18-0.188,0.273-0.516,0.273-0.982V20.176c0-0.468-0.094-0.794-0.273-0.973
		c-0.178-0.177-0.497-0.271-0.957-0.271h-5.411c-0.461,0-0.773,0.095-0.946,0.271c-0.178,0.179-0.264,0.505-0.264,0.973v6.313
		c0,0.461-0.122,0.806-0.375,1.038c-0.251,0.234-0.619,0.35-1.1,0.35h-13.771c-0.497,0-0.866-0.115-1.11-0.35
		c-0.247-0.232-0.37-0.577-0.37-1.038v-6.313c0-0.468-0.092-0.794-0.27-0.973c-0.178-0.177-0.498-0.271-0.957-0.271H158.921z
		 M167.041,27.065h13.771c0.239,0,0.401-0.03,0.469-0.097c0.073-0.068,0.111-0.191,0.111-0.369v-0.111v-6.419
		c0-0.639,0.171-1.123,0.507-1.45c0.346-0.331,0.843-0.496,1.486-0.496h5.633c0.652,0,1.138,0.16,1.47,0.484
		c0.333,0.324,0.497,0.812,0.497,1.462v21.658c0,0.651-0.164,1.142-0.497,1.469c-0.332,0.332-0.817,0.497-1.47,0.497h-5.633
		c-0.644,0-1.136-0.165-1.466-0.497c-0.326-0.327-0.505-0.817-0.527-1.469v-6.954c0-0.245-0.038-0.402-0.118-0.49
		c-0.079-0.081-0.235-0.123-0.462-0.123h-13.771c-0.227,0-0.386,0.031-0.467,0.099c-0.087,0.066-0.131,0.19-0.131,0.368v0.146v6.954
		c0,0.651-0.163,1.142-0.5,1.469c-0.34,0.332-0.838,0.497-1.498,0.497h-5.635c-0.65,0-1.135-0.165-1.468-0.497
		c-0.332-0.327-0.499-0.817-0.499-1.469V20.069c0-0.65,0.167-1.138,0.499-1.462c0.333-0.324,0.817-0.484,1.468-0.484h5.635
		c0.647,0,1.141,0.16,1.465,0.484c0.332,0.324,0.51,0.818,0.533,1.481v6.399c0,0.239,0.037,0.399,0.118,0.468
		C166.644,27.028,166.802,27.065,167.041,27.065z"/>
</g>
<g id="MasterLayer_1">
</g>
</svg>
