<?xml version="1.0" encoding="utf-8"?>
<!-- Generator: Adobe Illustrator 16.0.0, SVG Export Plug-In . SVG Version: 6.00 Build 0)  -->
<!DOCTYPE svg PUBLIC "-//W3C//DTD SVG 1.1//EN" "http://www.w3.org/Graphics/SVG/1.1/DTD/svg11.dtd">
<svg version="1.1"
	 id="svg2" inkscape:version="0.48.2 r9819" xmlns:inkscape="http://www.inkscape.org/namespaces/inkscape" xmlns:rdf="http://www.w3.org/1999/02/22-rdf-syntax-ns#" xmlns:cc="http://creativecommons.org/ns#" xmlns:sodipodi="http://sodipodi.sourceforge.net/DTD/sodipodi-0.dtd" xmlns:dc="http://purl.org/dc/elements/1.1/" xmlns:svg="http://www.w3.org/2000/svg" sodipodi:docname="Р СњР С•Р Р†Р С‘Р в„– Р Т‘Р С•Р С”РЎС“Р СР ВµР Р…РЎвЂљ 1"
	 xmlns="http://www.w3.org/2000/svg" xmlns:xlink="http://www.w3.org/1999/xlink" x="0px" y="0px" width="241.911px" height="60px"
	 viewBox="0 0 241.911 60" enable-background="new 0 0 241.911 60" xml:space="preserve">
<g id="Layer_9">
</g>
<g id="Layer_10">
</g>
<g id="Layer_11">
</g>
<g id="Layer_11_copy">
</g>
<g id="Layer_8_copy">
</g>
<g id="Layer_18">
</g>
<g id="Layer_19">
</g>
<g id="Layer_13">
</g>
<g id="Layer_15">
</g>
<g id="g4210">
	<path id="path4212" inkscape:connector-curvature="0" fill="none" d="M263.51,534.391l-12.116,19.771
		c-0.681,1.11-0.173,2.02,1.131,2.02h14.209c1.302,0,2.929-0.906,3.614-2.013l6.416-10.365L263.51,534.391L263.51,534.391z"/>
	<path id="path4214" inkscape:connector-curvature="0" fill="none" d="M281.124,515.604l-10.773-17.406
		c-0.687-1.106-2.313-2.014-3.615-2.014h-14.21c-1.304,0-1.812,0.909-1.13,2.019l13.796,22.512l7.755-10.92L281.124,515.604
		L281.124,515.604z"/>
</g>
<linearGradient id="path4221_1_" gradientUnits="userSpaceOnUse" x1="2465.9331" y1="600.4365" x2="2481.4209" y2="610.1142" gradientTransform="matrix(1 0 0 1 -2207.8184 -61.1426)">
	<stop  offset="0.54" style="stop-color:#0A985C"/>
	<stop  offset="0.54" style="stop-color:#F6C25B"/>
</linearGradient>
<path id="path4221" inkscape:connector-curvature="0" fill="url(#path4221_1_)" d="M276.024,539.498
	c-1.18-1.982-4.039-7.077-6.178-10.872l-2.412-4.248c0.556,1.118,0.516,2.779-0.121,3.819l-15.911,25.963
	c-0.681,1.108-0.172,2.021,1.132,2.021h14.207c1.303,0,2.93-0.907,3.615-2.015l6.427-10.378
	C276.646,543.977,277.542,542.048,276.024,539.498L276.024,539.498z"/>
<g id="g4223">
	<path id="path4225" inkscape:connector-curvature="0" fill="none" d="M263.518,534.388l-12.116,19.773
		c-0.681,1.109-0.171,2.02,1.132,2.02h14.208c1.304,0,2.929-0.906,3.615-2.014l6.419-10.365L263.518,534.388L263.518,534.388z"/>
	<path id="path4227" inkscape:connector-curvature="0" fill="none" d="M281.131,515.601l-10.775-17.406
		c-0.684-1.107-2.311-2.013-3.613-2.013h-14.209c-1.304,0-1.813,0.909-1.132,2.02l13.797,22.513l7.757-10.92L281.131,515.601
		L281.131,515.601z"/>
	<path id="path4229" inkscape:connector-curvature="0" opacity="0.09" fill="#010101" enable-background="new    " d="
		M286.434,528.196c0.688-1.107,0.688-2.922,0.002-4.03l-5.303-8.566l-8.178-5.809l-7.757,10.921l2.114,3.448
		c0.681,1.11,0.681,2.928,0,4.038l-3.795,6.189l13.257,9.414L286.434,528.196L286.434,528.196z"/>
</g>
<linearGradient id="path4236_1_" gradientUnits="userSpaceOnUse" x1="2470.4019" y1="582.2451" x2="2486.2854" y2="572.3201" gradientTransform="matrix(1 0 0 1 -2207.8184 -61.1426)">
	<stop  offset="0.57" style="stop-color:#5586C5"/>
	<stop  offset="0.57" style="stop-color:#D9423E"/>
</linearGradient>
<path id="path4236" inkscape:connector-curvature="0" fill="url(#path4236_1_)" d="M286.432,524.171l-16.076-25.973
	c-0.686-1.107-2.313-2.014-3.615-2.014h-14.212c-1.302,0-1.81,0.908-1.13,2.02l15.91,25.961l2.537,4.463
	c2.138,3.793,4.998,8.888,6.177,10.871c1.774,2.985,0.247,5.115,0.935,4.007l9.475-15.304
	C287.118,527.093,287.118,525.281,286.432,524.171z M267.329,524.195c0.016,0.027,0.036,0.057,0.057,0.094l0,0
	c0,0.004,0.002,0.004,0.004,0.007C267.368,524.257,267.346,524.225,267.329,524.195z M268.463,526.175
	c0.053,0.096,0.109,0.195,0.168,0.295C268.573,526.37,268.516,526.271,268.463,526.175z M268.449,526.138
	c0.088,0.155,0.179,0.314,0.271,0.479C268.627,526.451,268.536,526.292,268.449,526.138z">
	
		<namedview  bordercolor="#666666" borderopacity="1.0" current-layer="layer1" window-width="1280" window-height="712" showguides="true" pagecolor="#ffffff" window-x="-4" cy="885.96512" pageopacity="0.0" cx="1267.4286" window-y="-4" pageshadow="2" guide-bbox="true" document-units="px" showgrid="false" zoom="0.0875">
		<guide  id="guide5732" position="-3095.1074,2723.3713" orientation="0,1"></guide>
	</namedview>
</path>
<g enable-background="new    ">
	<path fill="#4E4E4E" d="M320.263,522.234h14.064v17.563c-3.819,1.309-8.017,1.961-12.594,1.961c-5.023,0-8.905-1.455-11.646-4.367
		c-2.74-2.912-4.111-7.066-4.111-12.46c0-5.261,1.5-9.354,4.502-12.282c3.001-2.927,7.207-4.391,12.615-4.391
		c2.052,0,3.986,0.192,5.808,0.58c1.82,0.387,3.406,0.877,4.759,1.471l-2.786,6.91c-2.348-1.159-4.926-1.739-7.734-1.739
		c-2.57,0-4.559,0.836-5.963,2.508c-1.403,1.671-2.105,4.062-2.105,7.166c0,3.047,0.635,5.368,1.906,6.966
		c1.271,1.599,3.102,2.396,5.493,2.396c1.309,0,2.512-0.126,3.611-0.379v-5.104h-5.817L320.263,522.234L320.263,522.234z"/>
	<path fill="#4E4E4E" d="M365.939,524.33c0,5.439-1.498,9.629-4.492,12.572s-7.203,4.413-12.627,4.413h-10.543v-32.588h11.278
		c5.229,0,9.27,1.337,12.114,4.012C364.515,515.414,365.939,519.277,365.939,524.33z M356.798,524.643
		c0-2.987-0.59-5.201-1.771-6.643c-1.181-1.44-2.976-2.162-5.383-2.162h-2.563v18.255h1.961c2.676,0,4.638-0.775,5.886-2.329
		C356.176,530.211,356.798,527.837,356.798,524.643z"/>
	<path fill="#4E4E4E" d="M382.169,522.234h14.064v17.563c-3.819,1.309-8.019,1.961-12.594,1.961c-5.022,0-8.904-1.455-11.646-4.367
		c-2.741-2.912-4.112-7.066-4.112-12.46c0-5.261,1.501-9.354,4.503-12.282c3.001-2.927,7.207-4.391,12.615-4.391
		c2.051,0,3.986,0.192,5.808,0.58c1.82,0.387,3.405,0.877,4.759,1.471l-2.786,6.91c-2.348-1.159-4.926-1.739-7.734-1.739
		c-2.57,0-4.559,0.836-5.963,2.508c-1.402,1.671-2.104,4.062-2.104,7.166c0,3.047,0.635,5.368,1.904,6.966
		c1.271,1.599,3.103,2.396,5.494,2.396c1.309,0,2.512-0.126,3.611-0.379v-5.104h-5.817L382.169,522.234L382.169,522.234z"/>
</g>
<g id="Layer_25">
</g>
<g id="Layer_26">
</g>
<g id="Layer_27">
</g>
<g id="Layer_28">
</g>
<g id="Layer_29">
</g>
<g id="Layer_30">
</g>
<g id="Layer_31">
</g>
<g id="Layer_32">
</g>
<g id="Layer_33">
</g>
<g id="Layer_34">
</g>
<g id="Layer_36">
</g>
<g id="Layer_35">
</g>
<g>
	<path fill="#4E4E4E" d="M424.999,530.926h-10.223l-2.313,6.284h-3.368l9.436-24.401h2.832l9.284,24.401h-3.368L424.999,530.926z
		 M415.798,528.16h8.212l-4.022-11.111h-0.101L415.798,528.16z"/>
	<path fill="#4E4E4E" d="M437.3,526.636v10.574h-3.302v-24.385h8.831c2.671,0,4.71,0.592,6.117,1.776
		c1.408,1.185,2.112,2.905,2.112,5.163c0,1.251-0.327,2.34-0.981,3.268c-0.652,0.927-1.604,1.665-2.856,2.212
		c1.341,0.436,2.305,1.142,2.891,2.12c0.587,0.978,0.88,2.188,0.88,3.628v2.296c0,0.76,0.084,1.441,0.251,2.045
		c0.169,0.604,0.459,1.095,0.871,1.475v0.402h-3.4c-0.437-0.38-0.716-0.938-0.839-1.676s-0.184-1.498-0.184-2.279v-2.229
		c0-1.319-0.386-2.38-1.157-3.185c-0.771-0.805-1.804-1.206-3.101-1.206H437.3z M437.3,524.038h5.195
		c1.865,0,3.209-0.355,4.03-1.063c0.821-0.709,1.231-1.787,1.231-3.237c0-1.371-0.399-2.432-1.198-3.187
		c-0.799-0.751-2.042-1.129-3.729-1.129H437.3V524.038z"/>
	<path fill="#4E4E4E" d="M460.963,512.809l7.776,19.826h0.101l7.775-19.826h4.224v24.401h-3.302v-9.652l0.336-9.922l-0.084-0.017
		l-7.91,19.591h-2.195l-7.877-19.54l-0.084,0.016l0.318,9.872v9.652h-3.302v-24.401H460.963z"/>
	<path fill="#4E4E4E" d="M501.37,525.897h-11.178v8.715h12.888v2.598H486.89v-24.401h16.004v2.598h-12.702v7.894h11.178V525.897z"/>
	<path fill="#4E4E4E" d="M525.402,537.21H522.1l-11.747-18.87l-0.101,0.032v18.838h-3.302v-24.401h3.302L522,531.646l0.101-0.034
		v-18.804h3.302V537.21z"/>
	<path fill="#4E4E4E" d="M534.921,537.21h-3.319v-24.401h3.319V537.21z"/>
	<path fill="#4E4E4E" d="M554.663,530.926H544.44l-2.313,6.284h-3.368l9.435-24.401h2.833l9.284,24.401h-3.368L554.663,530.926z
		 M545.463,528.16h8.211l-4.021-11.111h-0.101L545.463,528.16z"/>
</g>
</svg>
