<?xml version="1.0" encoding="utf-8"?>
<!-- Generator: Adobe Illustrator 16.0.0, SVG Export Plug-In . SVG Version: 6.00 Build 0)  -->
<!DOCTYPE svg PUBLIC "-//W3C//DTD SVG 1.1//EN" "http://www.w3.org/Graphics/SVG/1.1/DTD/svg11.dtd">
<svg version="1.1" id="Layer_1" xmlns="http://www.w3.org/2000/svg" xmlns:xlink="http://www.w3.org/1999/xlink" x="0px" y="0px"
	 width="185px" height="188px" viewBox="0 0 185 188" enable-background="new 0 0 185 188" xml:space="preserve">
<g>
	<path fill="#4E4E4E" d="M107.583,17.967c0,2.676-0.73,4.738-2.193,6.186c-1.462,1.448-3.518,2.171-6.166,2.171h-5.148V10.29h5.508
		c2.554,0,4.525,0.658,5.916,1.974C106.888,13.58,107.583,15.481,107.583,17.967z M103.121,18.121c0-1.469-0.289-2.559-0.866-3.268
		s-1.453-1.064-2.628-1.064h-1.251v8.982h0.958c1.306,0,2.265-0.382,2.874-1.146S103.121,19.693,103.121,18.121z"/>
	<path fill="#4E4E4E" d="M114.8,26.544c-2.053,0-3.646-0.55-4.783-1.65c-1.136-1.101-1.703-2.667-1.703-4.7
		c0-2.099,0.525-3.709,1.578-4.832c1.053-1.122,2.555-1.684,4.506-1.684c1.856,0,3.293,0.488,4.305,1.464s1.52,2.382,1.52,4.217
		v1.908h-7.609c0.029,0.695,0.281,1.239,0.759,1.634c0.475,0.395,1.12,0.592,1.94,0.592c0.748,0,1.437-0.071,2.063-0.214
		c0.629-0.143,1.31-0.386,2.041-0.729v3.082c-0.668,0.344-1.356,0.581-2.067,0.713C116.636,26.478,115.788,26.544,114.8,26.544z
		 M114.55,16.596c-0.5,0-0.92,0.159-1.256,0.477c-0.338,0.318-0.537,0.817-0.594,1.497h3.656c-0.015-0.599-0.185-1.078-0.506-1.437
		C115.528,16.774,115.095,16.596,114.55,16.596z"/>
	<path fill="#4E4E4E" d="M124.522,26.325l-4.703-12.426h4.44l2.091,7.348c0.008,0.037,0.021,0.099,0.043,0.187
		c0.022,0.088,0.043,0.192,0.065,0.313c0.021,0.121,0.041,0.249,0.06,0.384c0.019,0.136,0.027,0.262,0.027,0.378h0.076
		c0-0.38,0.064-0.793,0.195-1.239l2.188-7.37h4.43l-4.701,12.426L124.522,26.325L124.522,26.325z"/>
	<path fill="#4E4E4E" d="M138.052,26.325h-4.234V10.29h9.404v3.477h-5.17v3.06h4.768v3.477h-4.768V26.325L138.052,26.325z"/>
	<path fill="#4E4E4E" d="M150.198,26.544c-2.053,0-3.646-0.55-4.782-1.65s-1.703-2.667-1.703-4.7c0-2.099,0.524-3.709,1.578-4.832
		c1.052-1.122,2.554-1.684,4.506-1.684c1.856,0,3.292,0.488,4.306,1.464c1.012,0.976,1.519,2.382,1.519,4.217v1.908h-7.608
		c0.029,0.695,0.281,1.239,0.758,1.634c0.475,0.395,1.121,0.592,1.941,0.592c0.747,0,1.436-0.071,2.063-0.214
		c0.629-0.143,1.309-0.386,2.041-0.729v3.082c-0.668,0.344-1.356,0.581-2.067,0.713C152.034,26.478,151.187,26.544,150.198,26.544z
		 M149.948,16.596c-0.5,0-0.92,0.159-1.256,0.477c-0.338,0.318-0.537,0.817-0.594,1.497h3.656c-0.016-0.599-0.184-1.078-0.506-1.437
		C150.927,16.775,150.493,16.596,149.948,16.596z"/>
	<path fill="#4E4E4E" d="M166.212,22.508c0,1.331-0.45,2.336-1.35,3.016c-0.9,0.68-2.191,1.02-3.875,1.02
		c-0.914,0-1.709-0.049-2.385-0.148c-0.675-0.099-1.363-0.28-2.066-0.543V22.42c0.66,0.292,1.384,0.534,2.171,0.724
		c0.786,0.19,1.489,0.285,2.106,0.285c0.92,0,1.381-0.212,1.381-0.636c0-0.219-0.129-0.415-0.385-0.586
		c-0.259-0.172-1.008-0.506-2.248-1.004c-1.133-0.468-1.924-1-2.373-1.596s-0.676-1.351-0.676-2.265
		c0-1.155,0.442-2.055,1.328-2.698c0.885-0.644,2.137-0.965,3.755-0.965c0.813,0,1.576,0.09,2.291,0.269
		c0.716,0.179,1.457,0.44,2.228,0.784l-1.154,2.764c-0.564-0.256-1.164-0.473-1.796-0.652c-0.632-0.179-1.146-0.269-1.546-0.269
		c-0.696,0-1.045,0.172-1.045,0.516c0,0.212,0.121,0.393,0.365,0.543c0.242,0.15,0.944,0.455,2.105,0.916
		c0.863,0.358,1.507,0.709,1.932,1.053c0.426,0.344,0.736,0.748,0.937,1.212C166.112,21.278,166.212,21.843,166.212,22.508z"/>
	<path fill="#4E4E4E" d="M173.276,23.155c0.572,0,1.258-0.143,2.058-0.428v3.126c-0.573,0.249-1.119,0.426-1.64,0.532
		c-0.519,0.105-1.125,0.159-1.821,0.159c-1.431,0-2.46-0.353-3.093-1.058c-0.631-0.706-0.945-1.79-0.945-3.252v-5.122h-1.491v-1.744
		l1.894-1.349l1.101-2.61h2.786v2.49h3.025v3.213h-3.025v4.837C172.123,22.753,172.508,23.155,173.276,23.155z"/>
</g>
<path fill="#4E4E4E" d="M54.277,47.886H44.026v-1.841l3.9-3.92c1.151-1.179,1.915-2.016,2.291-2.509
	c0.376-0.493,0.65-0.957,0.822-1.391s0.259-0.9,0.259-1.396c0-0.683-0.205-1.221-0.616-1.614c-0.41-0.393-0.978-0.59-1.702-0.59
	c-0.579,0-1.14,0.107-1.681,0.321c-0.542,0.214-1.167,0.6-1.877,1.159L44.109,34.5c0.841-0.71,1.659-1.214,2.452-1.51
	c0.793-0.296,1.638-0.445,2.535-0.445c1.407,0,2.534,0.367,3.382,1.102s1.272,1.723,1.272,2.964c0,0.683-0.123,1.331-0.367,1.945
	c-0.245,0.614-0.621,1.247-1.127,1.898c-0.507,0.652-1.35,1.533-2.529,2.643L47.1,45.642v0.104h7.179v2.14H54.277z"/>
<path fill="#4E4E4E" d="M65.099,40.324c0,2.628-0.422,4.58-1.267,5.855c-0.845,1.276-2.136,1.914-3.874,1.914
	c-1.683,0-2.958-0.659-3.827-1.976c-0.869-1.317-1.304-3.248-1.304-5.793c0-2.668,0.422-4.636,1.268-5.901
	c0.844-1.265,2.132-1.898,3.863-1.898c1.689,0,2.969,0.662,3.838,1.986C64.664,35.834,65.099,37.772,65.099,40.324z M57.288,40.324
	c0,2.063,0.212,3.535,0.636,4.417c0.424,0.883,1.102,1.324,2.033,1.324S61.569,45.617,62,44.72c0.431-0.896,0.646-2.362,0.646-4.396
	c0-2.027-0.215-3.495-0.646-4.401c-0.431-0.907-1.112-1.36-2.043-1.36s-1.608,0.445-2.033,1.334
	C57.501,36.786,57.288,38.262,57.288,40.324z"/>
<path fill="#4E4E4E" d="M72.807,47.886h-2.431v-9.765c0-1.166,0.027-2.089,0.083-2.772c-0.159,0.166-0.354,0.349-0.584,0.548
	c-0.231,0.2-1.005,0.834-2.323,1.903l-1.22-1.541l4.448-3.497h2.028L72.807,47.886L72.807,47.886z"/>
<path fill="#4E4E4E" d="M87.28,44.586h-2.038v3.3h-2.369v-3.3h-6.91v-1.873l6.91-9.993h2.369v9.848h2.038V44.586z M82.873,42.569
	v-3.796c0-1.352,0.035-2.458,0.104-3.321h-0.083c-0.193,0.455-0.496,1.007-0.91,1.655l-3.755,5.462H82.873z"/>
<g>
	<path fill="#4E4E4E" d="M49.566,17.313h6.922v8.644c-1.879,0.644-3.945,0.965-6.198,0.965c-2.472,0-4.382-0.716-5.731-2.15
		c-1.349-1.433-2.024-3.477-2.024-6.132c0-2.589,0.739-4.603,2.216-6.044c1.477-1.44,3.547-2.161,6.208-2.161
		c1.009,0,1.962,0.095,2.858,0.285c0.896,0.19,1.676,0.432,2.342,0.724l-1.371,3.4c-1.156-0.57-2.424-0.854-3.807-0.854
		c-1.265,0-2.243,0.412-2.934,1.234c-0.691,0.823-1.037,1.999-1.037,3.527c0,1.499,0.313,2.642,0.938,3.428
		c0.625,0.786,1.526,1.179,2.704,1.179c0.644,0,1.236-0.062,1.777-0.187v-2.512h-2.863V17.313z"/>
	<path fill="#4E4E4E" d="M72.021,18.344c0,2.676-0.737,4.739-2.21,6.188c-1.473,1.448-3.545,2.172-6.214,2.172h-5.188V10.666h5.551
		c2.574,0,4.561,0.658,5.961,1.975C71.321,13.958,72.021,15.858,72.021,18.344z M67.524,18.498c0-1.47-0.291-2.56-0.872-3.269
		c-0.582-0.709-1.464-1.064-2.649-1.064h-1.262v8.983h0.965c1.316,0,2.282-0.382,2.896-1.146
		C67.216,21.238,67.524,20.07,67.524,18.498z"/>
	<path fill="#4E4E4E" d="M79.986,17.313h6.922v8.644c-1.879,0.644-3.945,0.965-6.198,0.965c-2.472,0-4.382-0.716-5.731-2.15
		c-1.349-1.433-2.024-3.477-2.024-6.132c0-2.589,0.739-4.603,2.216-6.044c1.477-1.44,3.547-2.161,6.208-2.161
		c1.009,0,1.962,0.095,2.858,0.285c0.896,0.19,1.676,0.432,2.342,0.724l-1.371,3.4c-1.156-0.57-2.424-0.854-3.807-0.854
		c-1.265,0-2.243,0.412-2.934,1.234c-0.691,0.823-1.037,1.999-1.037,3.527c0,1.499,0.313,2.642,0.938,3.428
		c0.625,0.786,1.526,1.179,2.704,1.179c0.644,0,1.236-0.062,1.777-0.187v-2.512h-2.863V17.313z"/>
</g>
<radialGradient id="SVGID_1_" cx="-103.8857" cy="-82.8882" r="20.1126" gradientTransform="matrix(0.498 0 0 -0.498 69.359 8.5545)" gradientUnits="userSpaceOnUse">
	<stop  offset="0" style="stop-color:#FFCF4F"/>
	<stop  offset="1" style="stop-color:#F4C236"/>
</radialGradient>
<path fill="url(#SVGID_1_)" d="M8.91,61h6.791c1.607,0,3.604-1.128,4.432-2.511l5.72-9.52c0.677-1.396,0.653-3.426-0.119-4.713
	l-3.378-5.592L8.91,61z"/>
<radialGradient id="SVGID_2_" cx="-115.9375" cy="-72.6743" r="27.6569" gradientTransform="matrix(0.498 0 0 -0.498 69.359 8.5545)" gradientUnits="userSpaceOnUse">
	<stop  offset="0" style="stop-color:#08A960"/>
	<stop  offset="1" style="stop-color:#07914B"/>
</radialGradient>
<path fill="url(#SVGID_2_)" d="M16.209,33.514L1.108,58.763C0.524,60.011,1.131,61,2.629,61H8.91l13.446-22.335L16.21,28.492
	C17.039,29.87,17.039,32.13,16.209,33.514"/>
<radialGradient id="SVGID_3_" cx="-106.4863" cy="-32.9927" r="40.538" gradientTransform="matrix(0.498 0 0 -0.498 69.359 8.5545)" gradientUnits="userSpaceOnUse">
	<stop  offset="0" style="stop-color:#567FC0"/>
	<stop  offset="1" style="stop-color:#557FC0"/>
</radialGradient>
<path fill="url(#SVGID_3_)" d="M2.629,1C1.015,1,0.375,2.133,1.205,3.511l24.529,40.745c0.772,1.288,0.795,3.317,0.119,4.713
	l5.963-9.925L8.914,1H2.629z"/>
<radialGradient id="SVGID_4_" cx="-94.4219" cy="-23.0288" r="33.0577" gradientTransform="matrix(0.498 0 0 -0.498 69.359 8.5545)" gradientUnits="userSpaceOnUse">
	<stop  offset="0" style="stop-color:#E14C40"/>
	<stop  offset="1" style="stop-color:#CD392D"/>
</radialGradient>
<path fill="url(#SVGID_4_)" d="M8.914,1l22.903,38.045l3.321-5.53c0.83-1.385,0.83-3.645,0-5.023L20.133,3.511
	C19.305,2.133,17.308,1,15.701,1H8.914z"/>
<g>
	<path fill="#4E4E4E" d="M106.904,80.967c0,2.677-0.73,4.738-2.193,6.187c-1.463,1.447-3.518,2.171-6.166,2.171h-5.148V73.29h5.508
		c2.553,0,4.525,0.657,5.916,1.974C106.209,76.581,106.904,78.481,106.904,80.967z M102.441,81.12c0-1.469-0.289-2.559-0.865-3.268
		c-0.578-0.71-1.453-1.064-2.629-1.064h-1.25v8.982h0.957c1.307,0,2.266-0.382,2.875-1.146
		C102.137,83.86,102.441,82.692,102.441,81.12z"/>
	<path fill="#4E4E4E" d="M114.121,89.544c-2.053,0-3.646-0.55-4.783-1.65c-1.137-1.101-1.703-2.667-1.703-4.7
		c0-2.099,0.525-3.709,1.578-4.831c1.053-1.122,2.555-1.684,4.506-1.684c1.855,0,3.293,0.488,4.305,1.464
		c1.012,0.977,1.52,2.382,1.52,4.218v1.908h-7.609c0.029,0.694,0.281,1.239,0.758,1.634c0.475,0.396,1.121,0.593,1.941,0.593
		c0.748,0,1.436-0.071,2.063-0.214c0.629-0.143,1.311-0.386,2.041-0.729v3.082c-0.668,0.344-1.355,0.581-2.066,0.713
		C115.957,89.478,115.109,89.544,114.121,89.544z M113.871,79.596c-0.5,0-0.92,0.159-1.256,0.478
		c-0.338,0.318-0.537,0.817-0.594,1.497h3.656c-0.016-0.6-0.186-1.078-0.506-1.437C114.85,79.775,114.416,79.596,113.871,79.596z"/>
	<path fill="#4E4E4E" d="M123.844,89.324l-4.703-12.426h4.439l2.092,7.348c0.008,0.037,0.021,0.099,0.043,0.187
		c0.021,0.088,0.043,0.192,0.064,0.313s0.041,0.249,0.061,0.384c0.018,0.136,0.027,0.262,0.027,0.379h0.076
		c0-0.38,0.064-0.793,0.195-1.239l2.188-7.37h4.43l-4.701,12.426h-4.211V89.324z"/>
	<path fill="#4E4E4E" d="M137.373,89.324h-4.234V73.29h9.404v3.477h-5.17v3.06h4.768v3.477h-4.768V89.324L137.373,89.324z"/>
	<path fill="#4E4E4E" d="M149.52,89.544c-2.053,0-3.646-0.55-4.783-1.65c-1.135-1.1-1.703-2.667-1.703-4.7
		c0-2.099,0.525-3.709,1.578-4.831c1.053-1.122,2.555-1.684,4.506-1.684c1.857,0,3.293,0.488,4.307,1.464
		c1.012,0.977,1.518,2.382,1.518,4.218v1.908h-7.607c0.029,0.694,0.281,1.239,0.758,1.634c0.475,0.396,1.121,0.593,1.941,0.593
		c0.746,0,1.436-0.071,2.063-0.214c0.629-0.143,1.309-0.386,2.041-0.729v3.082c-0.668,0.344-1.357,0.581-2.068,0.713
		C151.355,89.478,150.508,89.544,149.52,89.544z M149.27,79.596c-0.5,0-0.92,0.159-1.256,0.478
		c-0.338,0.318-0.537,0.817-0.594,1.497h3.656c-0.016-0.6-0.184-1.078-0.506-1.437C150.248,79.775,149.814,79.596,149.27,79.596z"/>
	<path fill="#4E4E4E" d="M165.533,85.508c0,1.331-0.451,2.336-1.35,3.016c-0.9,0.681-2.191,1.021-3.875,1.021
		c-0.914,0-1.709-0.05-2.385-0.148s-1.363-0.279-2.066-0.543V85.42c0.66,0.293,1.383,0.534,2.17,0.724s1.49,0.285,2.107,0.285
		c0.92,0,1.381-0.212,1.381-0.636c0-0.22-0.129-0.415-0.385-0.587c-0.26-0.172-1.008-0.506-2.248-1.004
		c-1.133-0.468-1.924-0.999-2.373-1.596c-0.449-0.596-0.676-1.351-0.676-2.265c0-1.155,0.441-2.055,1.328-2.698
		c0.885-0.644,2.137-0.965,3.754-0.965c0.814,0,1.576,0.09,2.291,0.27c0.717,0.18,1.457,0.44,2.229,0.784l-1.154,2.764
		c-0.564-0.256-1.164-0.473-1.797-0.652c-0.631-0.179-1.145-0.269-1.545-0.269c-0.697,0-1.045,0.172-1.045,0.516
		c0,0.212,0.121,0.393,0.365,0.543c0.242,0.149,0.943,0.455,2.105,0.915c0.863,0.358,1.506,0.71,1.932,1.054
		c0.426,0.344,0.736,0.747,0.936,1.212C165.434,84.277,165.533,84.843,165.533,85.508z"/>
	<path fill="#4E4E4E" d="M172.598,86.154c0.572,0,1.258-0.143,2.057-0.428v3.126c-0.572,0.249-1.119,0.427-1.639,0.532
		c-0.52,0.105-1.125,0.159-1.822,0.159c-1.43,0-2.459-0.353-3.092-1.059c-0.631-0.705-0.945-1.789-0.945-3.252V80.11h-1.492v-1.743
		l1.895-1.35l1.1-2.61h2.787v2.49h3.025v3.213h-3.025v4.837C171.443,85.753,171.828,86.154,172.598,86.154z"/>
</g>
<path fill="#4E4E4E" d="M54.277,110.886H44.025v-1.841l3.9-3.921c1.151-1.181,1.915-2.017,2.291-2.509
	c0.376-0.493,0.65-0.957,0.822-1.393c0.172-0.434,0.259-0.898,0.259-1.396c0-0.683-0.205-1.222-0.616-1.613
	c-0.41-0.394-0.978-0.59-1.702-0.59c-0.579,0-1.14,0.106-1.681,0.321c-0.542,0.214-1.167,0.6-1.877,1.158L44.108,97.5
	c0.841-0.71,1.659-1.214,2.452-1.51c0.793-0.297,1.638-0.445,2.535-0.445c1.407,0,2.534,0.367,3.382,1.102
	c0.848,0.735,1.272,1.724,1.272,2.965c0,0.683-0.123,1.33-0.367,1.943c-0.245,0.614-0.621,1.247-1.127,1.898
	c-0.506,0.65-1.35,1.533-2.529,2.645l-2.627,2.543v0.104h7.179v2.141H54.277z"/>
<path fill="#4E4E4E" d="M65.099,103.324c0,2.627-0.422,4.578-1.267,5.854c-0.845,1.276-2.136,1.914-3.874,1.914
	c-1.683,0-2.958-0.658-3.827-1.976c-0.869-1.317-1.304-3.248-1.304-5.793c0-2.669,0.422-4.636,1.268-5.901
	c0.844-1.266,2.132-1.898,3.863-1.898c1.689,0,2.969,0.662,3.838,1.986C64.665,98.834,65.099,100.771,65.099,103.324z
	 M57.288,103.324c0,2.062,0.212,3.533,0.636,4.417c0.424,0.883,1.102,1.323,2.033,1.323s1.612-0.447,2.043-1.345
	c0.431-0.896,0.646-2.362,0.646-4.396c0-2.027-0.215-3.495-0.646-4.401c-0.431-0.907-1.112-1.36-2.043-1.36
	s-1.608,0.444-2.033,1.334C57.5,99.786,57.288,101.262,57.288,103.324z"/>
<path fill="#4E4E4E" d="M72.807,110.886h-2.431v-9.766c0-1.165,0.027-2.089,0.083-2.771c-0.159,0.164-0.354,0.348-0.584,0.547
	c-0.231,0.201-1.005,0.836-2.323,1.903l-1.22-1.541l4.448-3.497h2.028L72.807,110.886L72.807,110.886z"/>
<path fill="#4E4E4E" d="M87.28,107.586h-2.038v3.3h-2.369v-3.3h-6.91v-1.872l6.91-9.993h2.369v9.848h2.038V107.586z M82.873,105.568
	v-3.797c0-1.352,0.035-2.459,0.104-3.319h-0.083c-0.193,0.455-0.496,1.007-0.91,1.653l-3.755,5.463H82.873z"/>
<g>
	<path fill="#4E4E4E" d="M49.565,80.313h6.922v8.644c-1.879,0.644-3.945,0.966-6.198,0.966c-2.472,0-4.382-0.717-5.731-2.15
		s-2.024-3.477-2.024-6.132c0-2.589,0.739-4.603,2.216-6.044c1.477-1.44,3.547-2.161,6.208-2.161c1.009,0,1.962,0.096,2.858,0.285
		c0.896,0.19,1.676,0.432,2.342,0.725l-1.371,3.4c-1.156-0.57-2.424-0.855-3.807-0.855c-1.265,0-2.243,0.411-2.934,1.233
		c-0.691,0.823-1.037,1.999-1.037,3.527c0,1.499,0.313,2.642,0.938,3.428c0.625,0.786,1.526,1.179,2.704,1.179
		c0.644,0,1.236-0.062,1.777-0.187v-2.512h-2.863V80.313z"/>
	<path fill="#4E4E4E" d="M72.021,81.344c0,2.677-0.737,4.739-2.21,6.188c-1.474,1.448-3.545,2.172-6.214,2.172h-5.188V73.665h5.551
		c2.574,0,4.561,0.658,5.961,1.975C71.321,76.957,72.021,78.857,72.021,81.344z M67.523,81.497c0-1.47-0.291-2.56-0.872-3.269
		c-0.581-0.709-1.464-1.063-2.649-1.063h-1.262v8.983h0.965c1.316,0,2.282-0.382,2.896-1.146
		C67.217,84.238,67.523,83.069,67.523,81.497z"/>
	<path fill="#4E4E4E" d="M79.986,80.313h6.922v8.644c-1.879,0.644-3.945,0.966-6.198,0.966c-2.472,0-4.382-0.717-5.731-2.15
		s-2.024-3.477-2.024-6.132c0-2.589,0.739-4.603,2.216-6.044c1.477-1.44,3.547-2.161,6.208-2.161c1.009,0,1.962,0.096,2.858,0.285
		c0.896,0.19,1.676,0.432,2.342,0.725l-1.371,3.4c-1.156-0.57-2.424-0.855-3.807-0.855c-1.265,0-2.243,0.411-2.934,1.233
		c-0.691,0.823-1.037,1.999-1.037,3.527c0,1.499,0.313,2.642,0.938,3.428c0.625,0.786,1.526,1.179,2.704,1.179
		c0.644,0,1.236-0.062,1.777-0.187v-2.512h-2.863V80.313z"/>
</g>
<radialGradient id="SVGID_5_" cx="-103.8857" cy="-209.3936" r="20.1129" gradientTransform="matrix(0.498 0 0 -0.498 69.359 8.5545)" gradientUnits="userSpaceOnUse">
	<stop  offset="0" style="stop-color:#CCCCCC"/>
	<stop  offset="1" style="stop-color:#C0C0C0"/>
</radialGradient>
<path fill="url(#SVGID_5_)" d="M8.91,124h6.791c1.607,0,3.604-1.128,4.432-2.511l5.72-9.52c0.677-1.396,0.653-3.426-0.119-4.713
	l-3.378-5.592L8.91,124z"/>
<radialGradient id="SVGID_6_" cx="-115.9375" cy="-199.1807" r="27.6567" gradientTransform="matrix(0.498 0 0 -0.498 69.359 8.5545)" gradientUnits="userSpaceOnUse">
	<stop  offset="0" style="stop-color:#A0A0A0"/>
	<stop  offset="1" style="stop-color:#7B7B7B"/>
</radialGradient>
<path fill="url(#SVGID_6_)" d="M16.209,96.514l-15.101,25.25C0.524,123.011,1.131,124,2.629,124H8.91l13.446-22.335L16.21,91.492
	C17.039,92.87,17.039,95.13,16.209,96.514"/>
<radialGradient id="SVGID_7_" cx="-106.4863" cy="-159.499" r="40.5378" gradientTransform="matrix(0.498 0 0 -0.498 69.359 8.5545)" gradientUnits="userSpaceOnUse">
	<stop  offset="0" style="stop-color:#848484"/>
	<stop  offset="1" style="stop-color:#838383"/>
</radialGradient>
<path fill="url(#SVGID_7_)" d="M2.629,64c-1.613,0-2.254,1.133-1.424,2.511l24.529,40.745c0.772,1.288,0.795,3.317,0.119,4.713
	l5.963-9.925L8.914,64H2.629z"/>
<radialGradient id="SVGID_8_" cx="-94.4219" cy="-149.5352" r="33.0574" gradientTransform="matrix(0.498 0 0 -0.498 69.359 8.5545)" gradientUnits="userSpaceOnUse">
	<stop  offset="0" style="stop-color:#626262"/>
	<stop  offset="1" style="stop-color:#474747"/>
</radialGradient>
<path fill="url(#SVGID_8_)" d="M8.914,64l22.903,38.045l3.321-5.529c0.83-1.386,0.83-3.646,0-5.023l-15.004-24.98
	C19.305,65.133,17.308,64,15.701,64H8.914z"/>
<g>
	<path fill="#E6E6E5" d="M106.641,143.967c0,2.676-0.73,4.738-2.192,6.186c-1.462,1.449-3.519,2.173-6.166,2.173h-5.147V136.29
		h5.506c2.555,0,4.527,0.658,5.916,1.976C105.947,139.582,106.641,141.48,106.641,143.967z M102.178,144.12
		c0-1.47-0.289-2.56-0.865-3.269c-0.577-0.709-1.453-1.063-2.629-1.063h-1.25v8.981h0.957c1.307,0,2.265-0.381,2.875-1.146
		C101.873,146.859,102.178,145.691,102.178,144.12z"/>
	<path fill="#E6E6E5" d="M113.857,152.544c-2.053,0-3.646-0.551-4.782-1.651c-1.136-1.1-1.704-2.666-1.704-4.699
		c0-2.099,0.526-3.709,1.578-4.83c1.053-1.123,2.555-1.684,4.505-1.684c1.857,0,3.294,0.486,4.306,1.463
		c1.012,0.978,1.52,2.383,1.52,4.217v1.91h-7.609c0.029,0.693,0.281,1.238,0.758,1.633c0.476,0.396,1.121,0.593,1.941,0.593
		c0.748,0,1.436-0.071,2.063-0.214c0.63-0.143,1.31-0.385,2.041-0.729v3.081c-0.668,0.344-1.356,0.582-2.067,0.713
		C115.693,152.479,114.846,152.544,113.857,152.544z M113.607,142.596c-0.5,0-0.92,0.159-1.256,0.479
		c-0.338,0.316-0.537,0.816-0.594,1.496h3.655c-0.014-0.6-0.184-1.078-0.506-1.438C114.586,142.775,114.152,142.596,113.607,142.596
		z"/>
	<path fill="#E6E6E5" d="M123.579,152.324l-4.702-12.428h4.44l2.09,7.35c0.009,0.037,0.022,0.099,0.044,0.188
		c0.021,0.088,0.043,0.191,0.064,0.313s0.041,0.249,0.061,0.384c0.018,0.136,0.027,0.263,0.027,0.379h0.076
		c0-0.381,0.064-0.794,0.195-1.239l2.188-7.371h4.43l-4.701,12.428h-4.212V152.324z"/>
	<path fill="#E6E6E5" d="M137.109,152.324h-4.234v-16.035h9.404v3.479h-5.17v3.06h4.768v3.478h-4.768V152.324L137.109,152.324z"/>
	<path fill="#E6E6E5" d="M149.258,152.544c-2.055,0-3.647-0.551-4.783-1.651c-1.137-1.1-1.703-2.666-1.703-4.699
		c0-2.099,0.525-3.709,1.578-4.83c1.052-1.123,2.554-1.684,4.506-1.684c1.857,0,3.292,0.486,4.305,1.463
		c1.012,0.978,1.52,2.383,1.52,4.217v1.91h-7.608c0.028,0.693,0.28,1.238,0.757,1.633c0.475,0.396,1.122,0.593,1.942,0.593
		c0.747,0,1.435-0.071,2.063-0.214c0.627-0.143,1.307-0.385,2.041-0.729v3.081c-0.668,0.344-1.357,0.582-2.068,0.713
		C151.092,152.479,150.244,152.544,149.258,152.544z M149.008,142.596c-0.502,0-0.92,0.159-1.258,0.479
		c-0.338,0.316-0.535,0.816-0.594,1.496h3.657c-0.015-0.6-0.185-1.078-0.507-1.438C149.984,142.775,149.551,142.596,149.008,142.596
		z"/>
	<path fill="#E6E6E5" d="M165.27,148.508c0,1.33-0.45,2.336-1.35,3.016c-0.9,0.681-2.191,1.021-3.875,1.021
		c-0.914,0-1.709-0.05-2.385-0.148c-0.675-0.098-1.363-0.278-2.066-0.543v-3.433c0.66,0.292,1.384,0.533,2.17,0.724
		c0.787,0.191,1.49,0.285,2.106,0.285c0.921,0,1.382-0.212,1.382-0.636c0-0.22-0.129-0.415-0.386-0.587
		c-0.258-0.172-1.007-0.507-2.248-1.004c-1.132-0.469-1.923-1-2.373-1.596c-0.448-0.597-0.675-1.352-0.675-2.266
		c0-1.154,0.441-2.055,1.328-2.697c0.885-0.645,2.137-0.965,3.755-0.965c0.813,0,1.576,0.088,2.291,0.269
		c0.715,0.179,1.457,0.44,2.228,0.784l-1.154,2.764c-0.565-0.256-1.164-0.475-1.797-0.652c-0.631-0.18-1.146-0.269-1.545-0.269
		c-0.696,0-1.045,0.172-1.045,0.516c0,0.212,0.121,0.394,0.364,0.542c0.243,0.15,0.945,0.456,2.106,0.916
		c0.863,0.358,1.507,0.71,1.932,1.053c0.426,0.345,0.736,0.748,0.936,1.213C165.17,147.277,165.27,147.842,165.27,148.508z"/>
	<path fill="#E6E6E5" d="M172.334,149.154c0.573,0,1.26-0.144,2.059-0.428v3.125c-0.573,0.25-1.119,0.426-1.639,0.532
		c-0.52,0.105-1.127,0.159-1.822,0.159c-1.43,0-2.461-0.354-3.092-1.059c-0.631-0.707-0.947-1.791-0.947-3.252v-5.123h-1.49v-1.743
		l1.895-1.349l1.1-2.61h2.785v2.489h3.025v3.213h-3.025v4.838C171.18,148.753,171.565,149.154,172.334,149.154z"/>
</g>
<path fill="#E6E6E5" d="M54.014,173.886H43.763v-1.841l3.9-3.921c1.151-1.181,1.915-2.017,2.291-2.509
	c0.376-0.493,0.65-0.957,0.822-1.393c0.172-0.434,0.259-0.898,0.259-1.396c0-0.683-0.205-1.222-0.616-1.613
	c-0.41-0.394-0.978-0.59-1.702-0.59c-0.579,0-1.14,0.106-1.681,0.321c-0.542,0.214-1.167,0.6-1.877,1.158l-1.314-1.604
	c0.841-0.71,1.659-1.214,2.452-1.51c0.793-0.298,1.638-0.445,2.535-0.445c1.407,0,2.534,0.367,3.382,1.103
	c0.848,0.734,1.272,1.723,1.272,2.963c0,0.684-0.123,1.332-0.367,1.945c-0.245,0.613-0.621,1.246-1.127,1.897
	s-1.35,1.532-2.529,2.644l-2.627,2.545v0.104h7.179L54.014,173.886L54.014,173.886z"/>
<path fill="#E6E6E5" d="M64.835,166.324c0,2.627-0.422,4.578-1.267,5.854c-0.845,1.276-2.136,1.914-3.874,1.914
	c-1.683,0-2.958-0.658-3.827-1.976s-1.304-3.248-1.304-5.793c0-2.669,0.422-4.636,1.268-5.901c0.844-1.266,2.132-1.898,3.863-1.898
	c1.689,0,2.969,0.662,3.838,1.986S64.835,163.771,64.835,166.324z M57.025,166.324c0,2.062,0.212,3.533,0.636,4.417
	c0.424,0.883,1.102,1.323,2.033,1.323c0.931,0,1.612-0.447,2.043-1.345c0.431-0.896,0.646-2.362,0.646-4.396
	c0-2.027-0.215-3.495-0.646-4.401c-0.431-0.907-1.112-1.36-2.043-1.36c-0.931,0-1.608,0.444-2.033,1.334
	C57.238,162.786,57.025,164.262,57.025,166.324z"/>
<path fill="#E6E6E5" d="M72.544,173.886h-2.431v-9.766c0-1.165,0.027-2.089,0.083-2.771c-0.159,0.164-0.354,0.348-0.584,0.547
	c-0.231,0.201-1.005,0.836-2.323,1.903l-1.22-1.541l4.448-3.497h2.028L72.544,173.886L72.544,173.886z"/>
<path fill="#E6E6E5" d="M87.017,170.586h-2.039v3.3h-2.369v-3.3h-6.91v-1.872l6.91-9.993h2.369v9.848h2.039V170.586z M82.61,168.568
	v-3.797c0-1.352,0.035-2.459,0.104-3.319h-0.083c-0.193,0.455-0.496,1.007-0.91,1.653l-3.755,5.463H82.61z"/>
<g>
	<path fill="#E6E6E5" d="M49.302,143.313h6.922v8.645c-1.879,0.645-3.945,0.966-6.198,0.966c-2.472,0-4.382-0.717-5.731-2.149
		c-1.349-1.434-2.024-3.479-2.024-6.133c0-2.589,0.739-4.604,2.216-6.043c1.477-1.44,3.547-2.162,6.208-2.162
		c1.009,0,1.962,0.097,2.858,0.285c0.896,0.19,1.676,0.432,2.342,0.726l-1.371,3.399c-1.156-0.57-2.424-0.854-3.807-0.854
		c-1.265,0-2.243,0.411-2.934,1.233s-1.037,1.998-1.037,3.525c0,1.5,0.313,2.643,0.938,3.43c0.625,0.785,1.526,1.178,2.704,1.178
		c0.644,0,1.236-0.062,1.777-0.187v-2.512h-2.863V143.313z"/>
	<path fill="#E6E6E5" d="M71.758,144.345c0,2.677-0.737,4.738-2.21,6.188c-1.473,1.448-3.545,2.172-6.214,2.172h-5.188v-16.037
		h5.551c2.574,0,4.561,0.658,5.961,1.976C71.058,139.959,71.758,141.857,71.758,144.345z M67.261,144.498
		c0-1.471-0.291-2.561-0.872-3.27s-1.464-1.063-2.649-1.063h-1.262v8.983h0.965c1.316,0,2.282-0.383,2.896-1.146
		C66.953,147.238,67.261,146.07,67.261,144.498z"/>
	<path fill="#E6E6E5" d="M79.723,143.313h6.922v8.645c-1.879,0.645-3.945,0.966-6.198,0.966c-2.472,0-4.382-0.717-5.731-2.149
		c-1.349-1.434-2.024-3.479-2.024-6.133c0-2.589,0.739-4.604,2.216-6.043c1.477-1.44,3.547-2.162,6.208-2.162
		c1.009,0,1.962,0.097,2.858,0.285c0.896,0.19,1.676,0.432,2.342,0.726l-1.371,3.399c-1.156-0.57-2.424-0.854-3.807-0.854
		c-1.265,0-2.243,0.411-2.934,1.233s-1.037,1.998-1.037,3.525c0,1.5,0.313,2.643,0.938,3.43c0.625,0.785,1.526,1.178,2.704,1.178
		c0.644,0,1.236-0.062,1.777-0.187v-2.512h-2.863V143.313z"/>
</g>
<radialGradient id="SVGID_9_" cx="-103.5684" cy="-335.9004" r="20.1125" gradientTransform="matrix(0.498 0 0 -0.498 69.359 8.5545)" gradientUnits="userSpaceOnUse">
	<stop  offset="0" style="stop-color:#FFCF4F"/>
	<stop  offset="1" style="stop-color:#F4C236"/>
</radialGradient>
<path fill="url(#SVGID_9_)" d="M9.068,187h6.791c1.607,0,3.604-1.128,4.432-2.511l5.72-9.52c0.677-1.396,0.653-3.426-0.119-4.713
	l-3.378-5.592L9.068,187z"/>
<radialGradient id="SVGID_10_" cx="-115.6191" cy="-325.6865" r="27.6563" gradientTransform="matrix(0.498 0 0 -0.498 69.359 8.5545)" gradientUnits="userSpaceOnUse">
	<stop  offset="0" style="stop-color:#08A960"/>
	<stop  offset="1" style="stop-color:#07914B"/>
</radialGradient>
<path fill="url(#SVGID_10_)" d="M16.368,159.514l-15.102,25.25C0.683,186.011,1.289,187,2.787,187h6.281l13.446-22.335
	l-6.146-10.173C17.197,155.87,17.197,158.13,16.368,159.514"/>
<radialGradient id="SVGID_11_" cx="-106.1689" cy="-286.0049" r="40.5378" gradientTransform="matrix(0.498 0 0 -0.498 69.359 8.5545)" gradientUnits="userSpaceOnUse">
	<stop  offset="0" style="stop-color:#567FC0"/>
	<stop  offset="1" style="stop-color:#557FC0"/>
</radialGradient>
<path fill="url(#SVGID_11_)" d="M2.787,127c-1.613,0-2.254,1.133-1.424,2.511l24.529,40.745c0.772,1.288,0.795,3.317,0.119,4.713
	l5.963-9.925L9.072,127H2.787z"/>
<radialGradient id="SVGID_12_" cx="-94.1045" cy="-276.041" r="33.0574" gradientTransform="matrix(0.498 0 0 -0.498 69.359 8.5545)" gradientUnits="userSpaceOnUse">
	<stop  offset="0" style="stop-color:#E14C40"/>
	<stop  offset="1" style="stop-color:#CD392D"/>
</radialGradient>
<path fill="url(#SVGID_12_)" d="M9.072,127l22.903,38.045l3.321-5.529c0.83-1.386,0.83-3.646,0-5.023l-15.004-24.981
	C19.463,128.133,17.467,127,15.86,127H9.072z"/>
<g>
	<path fill="#4E4E4E" d="M101.49,44.828h-4.646l-0.83,2.865h-3.441l4.758-14.739h3.674l4.769,14.739h-3.442L101.49,44.828z
		 M97.603,42.197h3.128l-1.538-5.274h-0.061L97.603,42.197z"/>
	<path fill="#4E4E4E" d="M110.247,42.044v5.649h-3.433V32.955h5.669c1.707,0,3.061,0.395,4.059,1.185
		c0.999,0.789,1.499,1.869,1.499,3.239c0,0.763-0.201,1.417-0.603,1.964c-0.401,0.547-0.994,0.992-1.776,1.336
		c0.904,0.256,1.554,0.683,1.948,1.28s0.592,1.341,0.592,2.232v0.931c0,0.385,0.059,0.824,0.172,1.316
		c0.115,0.493,0.314,0.844,0.599,1.053v0.203h-3.523c-0.27-0.209-0.447-0.581-0.531-1.114s-0.127-1.026-0.127-1.478v-0.891
		c0-0.702-0.186-1.238-0.556-1.609c-0.372-0.372-0.915-0.557-1.631-0.557H110.247z M110.247,39.413h2.257
		c0.688,0,1.215-0.157,1.579-0.471s0.547-0.764,0.547-1.351c0-0.601-0.188-1.085-0.563-1.453c-0.374-0.368-0.902-0.552-1.584-0.552
		h-2.236V39.413z"/>
	<path fill="#4E4E4E" d="M124.995,32.955l3.3,10.315h0.062l3.34-10.315h4.515v14.739h-3.432v-3.655l0.324-6.731l-0.062-0.01
		l-3.552,10.396h-2.309l-3.513-10.305l-0.061,0.01l0.324,6.64v3.655h-3.432V32.955H124.995z"/>
	<path fill="#4E4E4E" d="M147.73,41.387h-5.779v3.674h6.812v2.632h-10.244V32.955h10.265v2.632h-6.832v3.168h5.779V41.387z"/>
	<path fill="#4E4E4E" d="M162.611,47.693H159.2l-5.396-9.394l-0.062,0.021v9.374h-3.432V32.955h3.432l5.396,9.394l0.062-0.02v-9.374
		h3.411V47.693z"/>
	<path fill="#4E4E4E" d="M168.572,47.693h-3.411V32.955h3.411V47.693z"/>
	<path fill="#4E4E4E" d="M179.131,44.828h-4.646l-0.829,2.865h-3.442l4.758-14.739h3.674l4.769,14.739h-3.441L179.131,44.828z
		 M175.244,42.197h3.127l-1.538-5.274h-0.061L175.244,42.197z"/>
</g>
<g>
	<path fill="#4E4E4E" d="M100.713,107.828h-4.646l-0.83,2.865h-3.442l4.758-14.738h3.674l4.768,14.738h-3.441L100.713,107.828z
		 M96.824,105.197h3.129l-1.539-5.275h-0.061L96.824,105.197z"/>
	<path fill="#4E4E4E" d="M109.469,105.045v5.648h-3.432V95.955h5.668c1.707,0,3.061,0.395,4.059,1.184c1,0.789,1.5,1.869,1.5,3.239
		c0,0.763-0.201,1.417-0.604,1.964c-0.4,0.547-0.994,0.992-1.775,1.336c0.904,0.257,1.553,0.684,1.947,1.281
		c0.395,0.597,0.592,1.341,0.592,2.232v0.93c0,0.386,0.059,0.824,0.172,1.316c0.115,0.493,0.314,0.844,0.6,1.053v0.203h-3.523
		c-0.27-0.209-0.447-0.58-0.531-1.113s-0.127-1.026-0.127-1.479v-0.891c0-0.702-0.186-1.238-0.557-1.609s-0.914-0.557-1.631-0.557
		H109.469z M109.469,102.413h2.258c0.688,0,1.215-0.157,1.578-0.472c0.365-0.313,0.547-0.764,0.547-1.351
		c0-0.601-0.188-1.085-0.563-1.452c-0.373-0.368-0.902-0.553-1.584-0.553h-2.236V102.413z"/>
	<path fill="#4E4E4E" d="M124.217,95.955l3.301,10.314h0.061l3.34-10.314h4.516v14.738h-3.432v-3.654l0.324-6.732l-0.063-0.01
		l-3.551,10.396h-2.309l-3.514-10.305l-0.061,0.01l0.324,6.641v3.654h-3.432V95.955H124.217z"/>
	<path fill="#4E4E4E" d="M146.953,104.387h-5.779v3.674h6.811v2.633H137.74V95.955h10.266v2.631h-6.832v3.169h5.779V104.387z"/>
	<path fill="#4E4E4E" d="M161.834,110.693h-3.412l-5.395-9.395l-0.063,0.021v9.373h-3.432V95.955h3.432l5.396,9.393l0.061-0.02
		v-9.373h3.412V110.693z"/>
	<path fill="#4E4E4E" d="M167.795,110.693h-3.412V95.955h3.412V110.693z"/>
	<path fill="#4E4E4E" d="M178.354,107.828h-4.646l-0.83,2.865h-3.441l4.758-14.738h3.674l4.768,14.738h-3.441L178.354,107.828z
		 M174.467,105.197h3.127l-1.539-5.275h-0.061L174.467,105.197z"/>
</g>
<g>
	<path fill="#E6E6E5" d="M101.076,170.719H96.43l-0.83,2.865h-3.441l4.758-14.738h3.674l4.768,14.738h-3.441L101.076,170.719z
		 M97.188,168.088h3.129l-1.539-5.275h-0.061L97.188,168.088z"/>
	<path fill="#E6E6E5" d="M109.832,167.936v5.648H106.4v-14.738h5.668c1.707,0,3.061,0.395,4.059,1.184c1,0.789,1.5,1.869,1.5,3.239
		c0,0.763-0.201,1.417-0.604,1.964c-0.4,0.547-0.994,0.992-1.775,1.336c0.904,0.257,1.553,0.684,1.947,1.281
		c0.395,0.597,0.592,1.341,0.592,2.232v0.93c0,0.386,0.059,0.824,0.172,1.316c0.115,0.493,0.314,0.844,0.6,1.053v0.203h-3.523
		c-0.27-0.209-0.447-0.58-0.531-1.113s-0.127-1.026-0.127-1.479v-0.891c0-0.702-0.186-1.238-0.557-1.609s-0.914-0.557-1.631-0.557
		H109.832z M109.832,165.304h2.258c0.688,0,1.215-0.157,1.578-0.472c0.365-0.313,0.547-0.764,0.547-1.351
		c0-0.601-0.188-1.085-0.563-1.452c-0.373-0.368-0.902-0.553-1.584-0.553h-2.236V165.304z"/>
	<path fill="#E6E6E5" d="M124.58,158.846l3.301,10.314h0.061l3.34-10.314h4.516v14.738h-3.432v-3.654l0.324-6.732l-0.063-0.01
		l-3.551,10.396h-2.309l-3.514-10.305l-0.061,0.01l0.324,6.641v3.654h-3.432v-14.738H124.58z"/>
	<path fill="#E6E6E5" d="M147.316,167.277h-5.779v3.674h6.811v2.633h-10.244v-14.738h10.266v2.631h-6.832v3.169h5.779V167.277z"/>
	<path fill="#E6E6E5" d="M162.197,173.584h-3.412l-5.395-9.395l-0.063,0.021v9.373h-3.432v-14.738h3.432l5.396,9.393l0.061-0.02
		v-9.373h3.412V173.584z"/>
	<path fill="#E6E6E5" d="M168.158,173.584h-3.412v-14.738h3.412V173.584z"/>
	<path fill="#E6E6E5" d="M178.717,170.719h-4.646l-0.83,2.865h-3.441l4.758-14.738h3.674l4.768,14.738h-3.441L178.717,170.719z
		 M174.83,168.088h3.127l-1.539-5.275h-0.061L174.83,168.088z"/>
</g>
</svg>
